<?xml version="1.0" standalone="no"?>
<!DOCTYPE svg PUBLIC "-//W3C//DTD SVG 20010904//EN"
 "http://www.w3.org/TR/2001/REC-SVG-20010904/DTD/svg10.dtd">
<svg version="1.0" xmlns="http://www.w3.org/2000/svg"
 width="636.000000pt" height="636.000000pt" viewBox="0 0 636.000000 636.000000"
 preserveAspectRatio="xMidYMid meet">

<g transform="translate(0.000000,636.000000) scale(0.100000,-0.100000)"
fill="#000000" stroke="none">
<path d="M2985 6236 l-191 -123 -214 69 c-118 37 -218 68 -221 68 -3 0 -75
-77 -159 -170 l-154 -170 -45 5 c-25 3 -129 7 -231 8 l-185 2 -98 -190 c-54
-104 -103 -195 -110 -201 -7 -7 -108 -33 -226 -58 -118 -26 -216 -48 -218 -49
-1 -2 -23 -100 -49 -218 -25 -118 -51 -219 -58 -226 -6 -7 -97 -56 -201 -110
l-190 -98 3 -200 c1 -110 4 -214 7 -230 5 -29 -5 -40 -165 -185 -93 -84 -170
-156 -170 -159 0 -3 31 -103 68 -221 l69 -214 -124 -194 -124 -193 120 -188
c67 -103 121 -195 121 -204 0 -9 -30 -109 -66 -222 -45 -141 -62 -210 -56
-218 6 -7 83 -77 171 -157 140 -126 161 -148 157 -170 -3 -14 -8 -117 -11
-230 l-6 -205 196 -100 c108 -55 200 -104 204 -110 4 -5 29 -107 55 -225 26
-118 48 -216 50 -217 2 -2 101 -25 220 -51 119 -27 220 -52 225 -58 5 -5 55
-98 111 -207 79 -154 106 -197 119 -193 9 3 113 8 231 11 l215 6 149 -165 c82
-92 153 -166 158 -166 6 0 101 29 212 65 111 36 208 65 215 65 7 0 98 -54 202
-121 l189 -121 190 121 c104 67 195 121 202 121 7 0 104 -29 216 -65 111 -36
207 -65 211 -65 5 0 76 74 157 165 l149 165 215 -6 c118 -3 223 -7 232 -10 13
-4 39 39 123 200 61 118 113 207 123 210 9 3 108 25 220 50 112 24 206 46 209
49 3 3 25 97 49 209 25 112 47 211 50 220 3 10 92 62 210 123 161 84 204 110
200 123 -3 9 -7 114 -10 232 l-6 215 165 149 c91 81 165 152 165 157 0 4 -29
100 -65 211 -36 112 -65 208 -65 215 0 7 54 98 121 203 l121 190 -121 189
c-67 104 -121 195 -121 202 0 7 29 104 65 215 36 111 65 206 65 212 0 5 -74
76 -166 158 l-165 149 6 215 c3 118 8 222 11 231 4 13 -39 40 -193 119 -109
56 -202 106 -207 111 -5 4 -31 106 -57 225 -26 119 -49 218 -51 220 -2 2 -100
24 -218 50 -118 26 -219 51 -225 55 -5 4 -55 96 -110 204 l-100 197 -200 -7
c-110 -3 -213 -8 -230 -11 -28 -4 -40 6 -175 156 -80 89 -150 166 -157 172 -8
6 -77 -11 -218 -56 -113 -36 -213 -66 -222 -66 -9 0 -100 54 -203 120 -103 66
-189 120 -191 119 -2 0 -90 -55 -194 -123z m510 -492 c576 -71 1099 -326 1511
-738 388 -389 630 -860 726 -1410 29 -173 37 -539 14 -726 -59 -481 -253 -942
-556 -1316 -82 -101 -283 -302 -384 -384 -369 -298 -819 -491 -1297 -556 -151
-21 -479 -23 -624 -5 -318 40 -616 132 -895 277 -484 252 -887 663 -1125 1149
-145 296 -223 568 -256 889 -17 171 -7 506 20 665 94 552 339 1029 726 1416
567 567 1345 836 2140 739z"/>
<path d="M2590 5265 c0 -8 -90 -438 -96 -457 -5 -17 -25 -18 -244 -18 l-238 0
-11 -47 c-6 -27 -27 -124 -46 -218 -19 -93 -37 -180 -40 -192 l-5 -23 239 0
238 0 22 103 c12 56 34 163 49 237 l29 135 241 3 c133 1 242 4 242 6 0 8 91
442 96 459 5 16 -11 17 -235 17 -133 0 -241 -2 -241 -5z"/>
<path d="M3504 5033 l-50 -238 -241 -3 -242 -2 -11 -58 c-7 -31 -29 -139 -50
-239 l-38 -183 239 0 c131 0 239 2 239 5 0 4 86 414 95 453 l5 22 240 0 240 0
5 23 c3 12 23 110 45 217 22 107 42 205 45 218 l5 22 -238 0 -239 0 -49 -237z"/>
<path d="M3884 4550 l-50 -240 238 0 238 0 5 23 c8 37 95 450 95 454 0 1 -107
3 -238 3 l-238 0 -50 -240z"/>
<path d="M1126 3893 c-2 -10 -7 -34 -11 -53 -4 -19 -9 -43 -11 -52 -4 -13 0
-18 15 -18 12 0 21 -3 21 -8 0 -6 -62 -303 -75 -359 -3 -12 -14 -23 -27 -25
-17 -2 -24 -14 -34 -58 -7 -30 -13 -61 -14 -68 0 -10 31 -12 137 -10 l137 3
13 60 c16 79 17 75 -12 75 -14 0 -25 2 -25 4 0 2 18 87 40 190 22 102 40 188
40 191 0 3 25 5 56 5 l56 0 -7 -32 c-4 -18 -9 -41 -11 -50 -5 -16 3 -18 70
-18 62 0 75 3 80 18 6 20 46 209 46 217 0 3 -108 5 -239 5 -220 0 -240 -1
-245 -17z"/>
<path d="M1637 3893 c-3 -10 -8 -34 -12 -53 -4 -19 -9 -43 -11 -52 -4 -13 0
-18 15 -18 12 0 21 -6 21 -12 0 -14 -67 -330 -76 -360 -3 -9 -15 -18 -26 -20
-17 -2 -24 -15 -34 -58 -7 -30 -13 -61 -14 -67 0 -10 33 -13 134 -13 l133 0
12 57 c15 76 14 83 -9 83 -16 0 -19 5 -15 23 3 12 9 40 13 62 l8 40 91 6 c170
12 200 36 229 177 17 84 19 88 42 84 18 -4 22 -9 18 -26 -17 -62 -28 -146 -22
-169 10 -43 47 -59 145 -65 l88 -5 -8 -41 c-20 -92 -15 -86 -65 -86 l-46 0 7
40 7 40 -84 0 -84 0 -12 -60 c-13 -74 -2 -114 39 -135 67 -35 275 -27 328 13
50 37 61 66 106 275 25 115 45 210 45 213 0 2 11 4 24 4 20 0 25 7 35 57 17
89 24 83 -97 83 l-109 0 -29 -137 -29 -138 -48 -3 c-45 -3 -47 -2 -42 20 2 13
14 68 26 123 11 55 23 108 25 118 5 15 -4 17 -100 17 l-105 0 -12 -62 -12 -62
-11 38 c-6 22 -23 48 -39 60 -26 19 -43 21 -232 24 -190 3 -204 2 -208 -15z
m293 -135 c0 -6 -5 -38 -12 -70 l-12 -58 -48 0 c-55 0 -56 3 -36 89 l11 51 49
0 c30 0 48 -4 48 -12z"/>
<path d="M2705 3898 c-2 -7 -12 -55 -23 -105 l-20 -93 89 0 88 0 9 33 c8 30
11 32 61 35 l52 3 -7 -38 c-17 -93 -11 -87 -104 -93 -92 -6 -86 0 -103 -87
l-6 -33 84 0 c63 0 83 -3 80 -12 -2 -7 -9 -39 -15 -70 l-11 -58 -51 0 -51 0 6
40 5 40 -88 0 -88 0 -16 -72 c-9 -40 -19 -90 -23 -111 l-6 -39 189 4 c157 3
194 6 222 21 55 30 82 93 99 229 5 41 3 49 -20 71 l-26 24 29 22 c43 32 58 58
75 139 20 96 6 135 -52 151 -56 16 -373 14 -378 -1z"/>
<path d="M3333 3900 c-42 -10 -78 -34 -99 -64 -25 -39 -117 -485 -107 -520 15
-51 49 -67 159 -73 167 -9 241 15 280 90 17 33 104 434 104 480 0 44 -23 74
-68 87 -42 11 -221 12 -269 0z m146 -152 c0 -13 -17 -99 -37 -193 l-37 -170
-48 -3 c-26 -2 -47 1 -47 5 0 7 59 287 75 361 5 19 12 22 50 22 40 0 45 -2 44
-22z"/>
<path d="M3745 3898 c-7 -20 -24 -102 -25 -115 0 -7 9 -13 20 -13 16 0 19 -5
15 -22 -3 -13 -21 -97 -40 -187 -19 -90 -38 -167 -41 -172 -3 -5 -14 -9 -24
-9 -14 0 -21 -12 -29 -50 -22 -100 -40 -92 197 -88 185 3 211 5 241 23 50 30
69 61 87 147 20 102 17 127 -24 154 -32 22 -32 23 -10 29 57 17 89 68 108 167
15 83 2 117 -50 135 -50 17 -419 18 -425 1z m295 -140 c0 -7 -6 -35 -13 -63
l-13 -50 -53 -3 c-47 -3 -52 -1 -47 15 3 10 8 36 12 58 4 22 9 43 11 48 8 13
103 8 103 -5z m-53 -255 c-3 -10 -11 -42 -17 -70 l-12 -53 -49 0 c-55 0 -55
-1 -38 83 l12 57 54 0 c47 0 54 -2 50 -17z"/>
<path d="M4411 3901 c-54 -14 -77 -30 -99 -70 -22 -39 -112 -436 -112 -494 0
-77 70 -104 248 -94 111 6 149 20 184 67 26 35 122 482 113 527 -10 55 -40 67
-179 70 -67 1 -136 -2 -155 -6z m149 -140 c0 -8 -57 -282 -75 -358 -5 -20 -12
-23 -50 -23 -33 0 -45 4 -45 15 0 16 67 342 75 363 5 14 95 17 95 3z"/>
<path d="M4810 3858 c-6 -29 -14 -61 -17 -70 -3 -13 1 -18 16 -18 12 0 21 -5
21 -10 0 -11 -68 -334 -76 -362 -3 -9 -15 -18 -27 -20 -17 -2 -24 -14 -34 -63
-7 -33 -12 -63 -13 -68 0 -4 107 -6 237 -5 l238 3 16 70 c9 39 19 87 23 108
l7 37 -80 0 -79 0 -9 -37 c-8 -37 -10 -38 -57 -41 -42 -3 -47 -1 -43 15 3 10
8 34 12 53 13 71 11 69 82 72 l67 3 12 55 c7 30 13 56 14 58 0 1 -29 2 -65 2
-73 0 -72 -2 -53 79 l11 51 45 0 44 0 -4 -35 -4 -36 80 3 81 3 17 75 c9 41 17
87 17 103 l1 27 -234 0 -234 0 -12 -52z"/>
<path d="M1826 2963 c-6 -18 -46 -211 -46 -220 0 -2 30 -3 67 -1 l68 3 9 48
c7 43 10 47 37 47 16 0 29 -2 29 -5 0 -6 -68 -327 -76 -360 -4 -18 -13 -25
-30 -25 -23 0 -24 -2 -39 -70 -2 -8 -6 -25 -10 -38 l-7 -23 143 3 143 3 12 55
c17 73 18 70 -12 70 -23 0 -25 3 -20 25 8 33 76 354 76 360 0 3 14 5 31 5 29
0 30 -1 24 -32 -4 -18 -9 -41 -11 -50 -5 -16 3 -18 64 -18 l69 0 24 120 25
120 -282 0 c-260 0 -283 -1 -288 -17z"/>
<path d="M2444 2718 c-94 -243 -104 -263 -127 -266 -22 -3 -27 -11 -36 -53
-18 -83 -23 -79 88 -79 l99 0 18 48 c44 120 37 112 97 112 l54 0 -5 -80 -5
-80 102 0 c113 0 99 -10 120 87 8 38 7 42 -13 45 -16 2 -21 10 -20 33 0 17 4
135 8 263 l7 232 -143 0 -143 0 -101 -262z m211 -7 l-8 -121 -38 0 c-22 0 -39
4 -39 9 0 17 83 242 87 237 3 -2 2 -59 -2 -125z"/>
<path d="M2972 2922 c-16 -77 -15 -82 8 -82 16 0 19 -5 15 -22 -16 -71 -75
-354 -75 -360 0 -5 -10 -8 -23 -8 -20 0 -25 -8 -35 -51 -20 -83 -25 -79 97
-79 96 0 110 2 115 18 2 9 14 65 27 125 l22 107 49 0 c42 0 49 -3 45 -17 -21
-73 -38 -179 -33 -199 8 -30 31 -36 131 -32 l79 3 8 40 c4 22 10 50 13 63 4
17 1 22 -13 22 -10 0 -21 2 -23 5 -3 2 3 46 13 96 17 83 17 93 3 115 -11 18
-25 24 -50 24 l-35 0 56 74 c45 61 61 75 87 78 28 3 32 7 43 58 20 84 24 80
-71 80 l-85 0 -90 -135 c-50 -74 -92 -135 -94 -135 -3 0 16 91 48 238 l8 32
-114 0 -114 0 -12 -58z"/>
<path d="M3647 2966 c-79 -29 -86 -44 -142 -303 -50 -232 -54 -279 -26 -314
19 -23 24 -24 204 -27 172 -3 186 -2 191 15 7 24 46 205 46 215 0 4 -36 8 -79
8 l-80 0 -11 -55 -11 -55 -50 0 c-27 0 -49 1 -49 3 0 1 18 86 40 187 22 101
40 188 40 192 0 5 23 8 51 8 l51 0 -7 -32 c-4 -18 -9 -41 -12 -51 -4 -16 2
-18 73 -15 l78 3 22 105 c13 58 23 111 24 118 0 18 -301 16 -353 -2z"/>
<path d="M4028 2913 c-14 -67 -14 -68 7 -71 21 -3 21 -4 -20 -195 -37 -175
-43 -192 -63 -195 -13 -2 -24 -12 -27 -25 -3 -12 -9 -41 -14 -64 l-9 -43 112
0 112 0 79 135 c43 75 80 133 82 131 3 -2 -7 -57 -21 -122 -14 -65 -26 -123
-26 -131 0 -10 25 -13 108 -13 l109 0 11 51 c16 66 15 79 -3 79 -21 0 -20 14
22 213 35 165 39 177 59 177 19 0 24 8 34 58 6 31 13 63 15 70 3 9 -23 12
-108 12 l-112 0 -79 -135 c-44 -74 -82 -133 -84 -131 -2 3 8 57 22 122 14 65
26 123 26 131 0 10 -25 13 -109 13 l-108 0 -15 -67z"/>
<path d="M2580 1873 c-120 -63 -97 -304 32 -328 89 -17 153 57 152 175 -1 101
-38 154 -115 166 -22 3 -47 -2 -69 -13z m113 -43 c47 -55 44 -184 -6 -237 -49
-53 -127 -10 -142 77 -24 141 75 248 148 160z"/>
<path d="M2893 1875 c-117 -51 -101 -300 22 -331 37 -9 100 11 117 39 25 38
30 64 13 71 -10 4 -19 -5 -29 -29 -38 -89 -134 -67 -157 36 -23 102 19 199 86
199 32 0 48 -12 80 -64 7 -10 15 -13 23 -7 20 12 -10 66 -48 86 -36 18 -65 19
-107 0z"/>
<path d="M1984 1866 c-22 -10 -35 -25 -43 -49 -13 -40 -7 -62 26 -98 l24 -26
-30 -68 c-17 -37 -31 -69 -31 -71 0 -2 9 -4 19 -4 14 0 28 19 52 70 l32 70 48
0 49 0 0 -70 c0 -56 3 -70 15 -70 13 0 15 25 15 165 l0 165 -72 0 c-40 -1 -87
-7 -104 -14z m146 -81 l0 -65 -57 0 c-64 0 -75 5 -92 37 -30 57 4 93 89 93
l60 0 0 -65z"/>
<path d="M2240 1716 c0 -159 1 -166 20 -166 18 0 20 7 20 64 l0 64 66 4 c58 4
70 8 90 32 33 37 32 95 0 133 -23 26 -31 28 -110 32 l-86 3 0 -166z m162 117
c23 -20 24 -80 1 -105 -12 -13 -30 -18 -70 -18 l-53 0 0 70 0 70 52 0 c34 0
58 -6 70 -17z"/>
<path d="M3185 1868 c-2 -7 -27 -82 -54 -165 -43 -136 -47 -153 -31 -153 15 0
25 22 50 103 52 169 56 182 66 180 5 -1 27 -64 50 -140 l40 -138 40 -3 40 -3
13 51 13 50 63 0 64 0 13 -47 c10 -36 19 -49 35 -51 l22 -3 -25 78 c-13 43
-36 118 -51 166 -25 82 -28 88 -51 85 -24 -3 -30 -16 -77 -163 -28 -88 -53
-155 -57 -150 -3 6 -22 64 -42 130 -21 66 -42 135 -47 153 -9 27 -16 32 -40
32 -16 0 -32 -6 -34 -12z m323 -118 l20 -65 -45 -3 c-25 -2 -47 -1 -50 1 -2 3
5 38 17 77 12 40 25 69 30 64 4 -5 17 -38 28 -74z"/>
<path d="M3650 1716 l0 -166 74 0 c121 0 156 21 156 94 0 36 -27 76 -51 76 -7
0 0 9 15 21 20 16 26 29 26 58 0 60 -25 75 -131 79 l-89 4 0 -166z m175 110
c11 -17 13 -30 6 -48 -12 -31 -29 -38 -92 -38 l-49 0 0 55 0 55 60 0 c52 0 62
-3 75 -24z m5 -143 c24 -30 20 -69 -7 -90 -9 -7 -43 -13 -75 -13 l-58 0 0 65
0 65 59 0 c53 0 62 -3 81 -27z"/>
<path d="M4015 1868 c-2 -7 -27 -82 -54 -165 -43 -136 -47 -153 -31 -153 15 0
25 22 50 103 52 169 56 182 66 180 5 -1 27 -64 50 -140 36 -123 43 -138 63
-141 17 -3 22 0 19 10 -3 7 -22 67 -42 133 -21 66 -42 135 -47 153 -9 27 -16
32 -40 32 -16 0 -32 -6 -34 -12z"/>
<path d="M4230 1714 l0 -166 85 3 c107 5 130 23 130 99 0 70 -23 91 -109 97
l-66 6 0 63 c0 57 -2 64 -20 64 -19 0 -20 -7 -20 -166z m164 -16 c9 -12 16
-34 16 -48 0 -14 -7 -36 -16 -48 -12 -18 -25 -22 -70 -22 l-54 0 0 70 0 70 54
0 c45 0 58 -4 70 -22z"/>
<path d="M1532 1773 c-7 -3 -18 -16 -23 -30 -20 -53 45 -97 85 -57 42 41 -7
109 -62 87z"/>
<path d="M4782 1773 c-7 -3 -18 -16 -23 -30 -20 -53 45 -97 85 -57 42 41 -7
109 -62 87z"/>
</g>
</svg>
