<?xml version="1.0" encoding="UTF-8" standalone="no"?>
<!-- Created with Inkscape (http://www.inkscape.org/) -->

<svg
   version="1.1"
   id="svg2"
   xml:space="preserve"
   width="984.62396"
   height="621.35199"
   viewBox="0 0 984.62396 621.35199"
   sodipodi:docname="697a731e41f4d1f507dabb6d9350b297.ai"
   xmlns:inkscape="http://www.inkscape.org/namespaces/inkscape"
   xmlns:sodipodi="http://sodipodi.sourceforge.net/DTD/sodipodi-0.dtd"
   xmlns="http://www.w3.org/2000/svg"
   xmlns:svg="http://www.w3.org/2000/svg"><defs
     id="defs6"><clipPath
       clipPathUnits="userSpaceOnUse"
       id="clipPath16"><path
         d="M 0,500 H 750 V 0 H 0 Z"
         id="path14" /></clipPath><clipPath
       clipPathUnits="userSpaceOnUse"
       id="clipPath28"><path
         d="M 18.1243,476.248 H 735.336 V 10.2348 H 18.1243 Z"
         id="path26" /></clipPath><clipPath
       clipPathUnits="userSpaceOnUse"
       id="clipPath82"><path
         d="M 0,500 H 750 V 0 H 0 Z"
         id="path80" /></clipPath><clipPath
       clipPathUnits="userSpaceOnUse"
       id="clipPath118"><path
         d="M 0,500 H 750 V 0 H 0 Z"
         id="path116" /></clipPath><clipPath
       clipPathUnits="userSpaceOnUse"
       id="clipPath206"><path
         d="M 0,500 H 750 V 0 H 0 Z"
         id="path204" /></clipPath><clipPath
       clipPathUnits="userSpaceOnUse"
       id="clipPath586"><path
         d="M 0,500 H 750 V 0 H 0 Z"
         id="path584" /></clipPath><clipPath
       clipPathUnits="userSpaceOnUse"
       id="clipPath760"><path
         d="M 0,500 H 750 V 0 H 0 Z"
         id="path758" /></clipPath></defs><sodipodi:namedview
     id="namedview4"
     pagecolor="#ffffff"
     bordercolor="#666666"
     borderopacity="1.0"
     inkscape:pageshadow="2"
     inkscape:pageopacity="0.0"
     inkscape:pagecheckerboard="0" /><g
     id="g8"
     inkscape:groupmode="layer"
     inkscape:label="697a731e41f4d1f507dabb6d9350b297"
     transform="matrix(1.3333333,0,0,-1.3333333,-8.3203998,634.99775)"><g
       id="g10"><g
         id="g12"
         clip-path="url(#clipPath16)"><g
           id="g18"
           transform="translate(735.0906,281.76)"><path
             d="m 0,0 c -2.735,41.684 -28.076,81.436 -65.31,111.742 -21.783,17.73 -47.726,33.114 -75.825,44.924 -29.162,12.257 -60.885,26.003 -95.472,27.475 -8.536,0.362 -17.253,-0.087 -25.574,-2.011 -31.862,-7.367 32.851,-29.794 41.326,-33.095 -90.146,24.582 -183.431,49.522 -280.552,44.895 -18.727,-0.893 -38.097,-3.068 -54.254,-10.668 -16.158,-7.6 -28.286,-21.849 -25.208,-35.649 2.544,-11.407 14.226,-23.962 4.212,-33.135 -2.863,-2.623 -7.017,-4.227 -11.103,-5.629 -20.968,-7.197 -43.772,-11.225 -63.536,-20.233 -30.606,-13.949 -50.804,-38.803 -59.519,-64.685 -8.715,-25.883 -7.027,-52.845 -1.978,-78.874 9.504,-48.987 31.525,-97.315 73.37,-134.67 59.772,-53.358 154.989,-79.145 249.316,-81.706 114.14,-3.098 236.313,28.597 308.598,97.432 10.72,10.21 20.465,21.475 23.965,34.065 3.5,12.589 -0.36,26.767 -13.232,34.709 -3.469,2.14 -7.911,4.393 -7.7,7.835 0.285,4.658 8.23,6.401 14.297,7.507 39.801,7.261 61.204,41.617 63.968,72.161 C 0.323,-11.716 0.383,-5.839 0,0"
             style="fill:#75e6a4;fill-opacity:1;fill-rule:nonzero;stroke:none"
             id="path20" /></g><g
           id="g22"><g
             id="g24" /><g
             id="g36"><g
               clip-path="url(#clipPath28)"
               opacity="0.699997"
               id="g34"><g
                 transform="translate(735.0906,281.76)"
                 id="g32"><path
                   d="m 0,0 c -2.735,41.684 -28.076,81.436 -65.31,111.742 -21.783,17.73 -47.726,33.114 -75.825,44.924 -29.162,12.257 -60.885,26.003 -95.472,27.475 -8.536,0.362 -17.253,-0.087 -25.574,-2.011 -31.862,-7.367 32.851,-29.794 41.326,-33.095 -90.146,24.582 -183.431,49.522 -280.552,44.895 -18.727,-0.893 -38.097,-3.068 -54.254,-10.668 -16.158,-7.6 -28.286,-21.849 -25.208,-35.649 2.544,-11.407 14.226,-23.962 4.212,-33.135 -2.863,-2.623 -7.017,-4.227 -11.103,-5.629 -20.968,-7.197 -43.772,-11.225 -63.536,-20.233 -30.606,-13.949 -50.804,-38.803 -59.519,-64.685 -8.715,-25.883 -7.027,-52.845 -1.978,-78.874 9.504,-48.987 31.525,-97.315 73.37,-134.67 59.772,-53.358 154.989,-79.145 249.316,-81.706 114.14,-3.098 236.313,28.597 308.598,97.432 10.72,10.21 20.465,21.475 23.965,34.065 3.5,12.589 -0.36,26.767 -13.232,34.709 -3.469,2.14 -7.911,4.393 -7.7,7.835 0.285,4.658 8.23,6.401 14.297,7.507 39.801,7.261 61.204,41.617 63.968,72.161 C 0.323,-11.716 0.383,-5.839 0,0"
                   style="fill:#ffffff;fill-opacity:1;fill-rule:nonzero;stroke:none"
                   id="path30" /></g></g></g></g></g></g><g
       id="g38"
       transform="translate(575.9866,384.1054)"><path
         d="M 0,0 V 60.522"
         style="fill:none;stroke:#233239;stroke-width:1;stroke-linecap:butt;stroke-linejoin:miter;stroke-miterlimit:10;stroke-dasharray:none;stroke-opacity:1"
         id="path40" /></g><g
       id="g42"
       transform="translate(491.7978,417.9801)"><path
         d="M 0,0 V -374.643"
         style="fill:none;stroke:#233239;stroke-width:1;stroke-linecap:butt;stroke-linejoin:miter;stroke-miterlimit:10;stroke-dasharray:none;stroke-opacity:1"
         id="path44" /></g><g
       id="g46"
       transform="translate(491.7978,448.3999)"><path
         d="M 0,0 V -19.773"
         style="fill:none;stroke:#233239;stroke-width:1;stroke-linecap:butt;stroke-linejoin:miter;stroke-miterlimit:10;stroke-dasharray:none;stroke-opacity:1"
         id="path48" /></g><g
       id="g50"
       transform="translate(575.9866,88.0267)"><path
         d="M 0,0 V 289.304"
         style="fill:none;stroke:#233239;stroke-width:1;stroke-linecap:butt;stroke-linejoin:miter;stroke-miterlimit:10;stroke-dasharray:none;stroke-opacity:1"
         id="path52" /></g><g
       id="g54"
       transform="translate(691.6886,174.6613)"><path
         d="M 0,0 V 104.266 H -66.302 V -86.629 H 0 v 78.876"
         style="fill:none;stroke:#233239;stroke-width:1;stroke-linecap:butt;stroke-linejoin:miter;stroke-miterlimit:10;stroke-dasharray:none;stroke-opacity:1"
         id="path56" /></g><g
       id="g58"
       transform="translate(634.9169,230.6958)"><path
         d="M 0,0 V 41.544 H 46.695 V -46.099 H 0 v 39.051"
         style="fill:none;stroke:#233239;stroke-width:1;stroke-linecap:butt;stroke-linejoin:miter;stroke-miterlimit:10;stroke-dasharray:none;stroke-opacity:1"
         id="path60" /></g><path
       d="m 642.013,174.999 h -12.538 v 4.179 h 12.538 z"
       style="fill:none;stroke:#233239;stroke-width:1;stroke-linecap:butt;stroke-linejoin:miter;stroke-miterlimit:10;stroke-dasharray:none;stroke-opacity:1"
       id="path62" /><path
       d="M 510.86,54.91 H 656.682 V 43.887 H 510.86 Z"
       style="fill:none;stroke:#233239;stroke-width:1;stroke-linecap:butt;stroke-linejoin:miter;stroke-miterlimit:10;stroke-dasharray:none;stroke-opacity:1"
       id="path64" /><path
       d="M 529.889,65.913 H 675.711 V 54.89 H 529.889 Z"
       style="fill:none;stroke:#233239;stroke-width:1;stroke-linecap:butt;stroke-linejoin:miter;stroke-miterlimit:10;stroke-dasharray:none;stroke-opacity:1"
       id="path66" /><path
       d="M 548.918,76.917 H 694.74 V 65.894 H 548.918 Z"
       style="fill:none;stroke:#233239;stroke-width:1;stroke-linecap:butt;stroke-linejoin:miter;stroke-miterlimit:10;stroke-dasharray:none;stroke-opacity:1"
       id="path68" /><path
       d="M 567.946,87.92 H 713.768 V 76.897 H 567.946 Z"
       style="fill:none;stroke:#233239;stroke-width:1;stroke-linecap:butt;stroke-linejoin:miter;stroke-miterlimit:10;stroke-dasharray:none;stroke-opacity:1"
       id="path70" /><g
       id="g72"
       transform="translate(727.1762,43.8256)"><path
         d="M 0,0 -0.249,44.094 H -13.408 V 33.072 l -19.029,0.019 V 22.068 l -19.028,0.02 V 11.065 L -70.494,11.084 -70.245,0 Z"
         style="fill:none;stroke:#233239;stroke-width:1;stroke-linecap:butt;stroke-linejoin:miter;stroke-miterlimit:10;stroke-dasharray:none;stroke-opacity:1"
         id="path74" /></g><g
       id="g76"><g
         id="g78"
         clip-path="url(#clipPath82)"><g
           id="g84"
           transform="translate(728.2853,140.6982)"><path
             d="m 0,0 h -20.218 l -0.371,-0.256 c 0,0 0,0 -0.001,0 l -57.502,-39.642 v -56.817 c 0,-0.135 0.024,-0.264 0.058,-0.388 h 2.885 c 0.034,0.124 0.057,0.253 0.057,0.388 v 55.24 l 27.338,18.848 v -51.495 c 0,-0.259 0.072,-0.499 0.188,-0.712 h 2.625 c 0.115,0.213 0.187,0.453 0.187,0.712 v 53.324 c 0,0.077 -0.011,0.15 -0.022,0.223 l 23.525,16.219 V -52.09 c 0,-0.302 0.091,-0.582 0.245,-0.817 h 2.51 c 0.154,0.235 0.245,0.515 0.245,0.817 V -3 H 0 c 0.828,0 1.5,0.672 1.5,1.5 C 1.5,-0.672 0.828,0 0,0"
             style="fill:#233239;fill-opacity:1;fill-rule:nonzero;stroke:none"
             id="path86" /></g><g
           id="g88"
           transform="translate(516.063,43.595)"><path
             d="M 0,0 C 0.034,0.125 0.057,0.253 0.057,0.388 V 55.629 L 27.396,74.477 V 22.981 c 0,-0.259 0.072,-0.499 0.188,-0.712 h 2.625 c 0.115,0.213 0.187,0.453 0.187,0.712 v 53.324 c 0,0.077 -0.011,0.151 -0.022,0.224 L 53.898,92.747 V 45.013 c 0,-0.301 0.091,-0.581 0.245,-0.817 h 2.51 c 0.154,0.236 0.245,0.516 0.245,0.817 v 49.09 H 75.15 c 0.828,0 1.5,0.672 1.5,1.5 0,0.828 -0.672,1.5 -1.5,1.5 H 54.931 L 54.56,96.847 c 0,0 0,0 -0.001,0 L -2.943,57.205 V 0.388 c 0,-0.135 0.024,-0.263 0.058,-0.388 z"
             style="fill:#233239;fill-opacity:1;fill-rule:nonzero;stroke:none"
             id="path90" /></g><g
           id="g92"
           transform="translate(38.3916,217.6355)"><path
             d="M 0,0 V -105.564 H 216.434 V 103.56"
             style="fill:none;stroke:#233239;stroke-width:1;stroke-linecap:butt;stroke-linejoin:miter;stroke-miterlimit:10;stroke-dasharray:none;stroke-opacity:1"
             id="path94" /></g><g
           id="g96"
           transform="translate(254.8257,335.713)"><path
             d="M 0,0 V 76.399 H -216.434 V -103.56"
             style="fill:none;stroke:#233239;stroke-width:1;stroke-linecap:butt;stroke-linejoin:miter;stroke-miterlimit:10;stroke-dasharray:none;stroke-opacity:1"
             id="path98" /></g><g
           id="g100"
           transform="translate(698.3356,289.2687)"><path
             d="m 0,0 h -80.487 c -1.506,0 -2.728,1.221 -2.728,2.728 v 1.636 c 0,1.507 1.222,2.728 2.728,2.728 L 0,7.092 c 1.507,0 2.728,-1.221 2.728,-2.728 V 2.728 C 2.728,1.221 1.507,0 0,0 Z"
             style="fill:none;stroke:#233239;stroke-width:1;stroke-linecap:butt;stroke-linejoin:miter;stroke-miterlimit:10;stroke-dasharray:none;stroke-opacity:1"
             id="path102" /></g><g
           id="g104"
           transform="translate(23.7507,112.0441)"><path
             d="M 0,0 H 283.464 V -66.955"
             style="fill:none;stroke:#233239;stroke-width:1;stroke-linecap:butt;stroke-linejoin:miter;stroke-miterlimit:10;stroke-dasharray:none;stroke-opacity:1"
             id="path106" /></g><g
           id="g108"
           transform="translate(48.6387,111.8813)"><path
             d="M 0,0 V -67.619"
             style="fill:none;stroke:#233239;stroke-width:1;stroke-linecap:butt;stroke-linejoin:miter;stroke-miterlimit:10;stroke-dasharray:none;stroke-opacity:1"
             id="path110" /></g></g></g><g
       id="g112"><g
         id="g114"
         clip-path="url(#clipPath118)"><g
           id="g120"
           transform="translate(74.6301,193.8735)"><path
             d="M 0,0 C 0,0 7.315,0.348 10.973,-3.317"
             style="fill:none;stroke:#233239;stroke-width:6;stroke-linecap:round;stroke-linejoin:round;stroke-miterlimit:10;stroke-dasharray:none;stroke-opacity:1"
             id="path122" /></g><g
           id="g124"
           transform="translate(147.6806,60.8718)"><path
             d="m 0,0 c 0,2.965 0.377,5.757 1.04,8.205 v 9.329 h 7.907 c 4.941,0 8.947,-7.85 8.947,-17.534 0,-9.684 -4.006,-17.534 -8.947,-17.534 H 1.04 v 9.329 C 0.377,-5.757 0,-2.965 0,0"
             style="fill:#233239;fill-opacity:1;fill-rule:nonzero;stroke:none"
             id="path126" /></g><g
           id="g128"
           transform="translate(147.6806,60.8718)"><path
             d="m 0,0 c 0,2.965 0.377,5.757 1.04,8.205 v 9.329 h 7.907 c 4.941,0 8.947,-7.85 8.947,-17.534 0,-9.684 -4.006,-17.534 -8.947,-17.534 H 1.04 v 9.329 C 0.377,-5.757 0,-2.965 0,0 Z"
             style="fill:none;stroke:#233239;stroke-width:1;stroke-linecap:butt;stroke-linejoin:miter;stroke-miterlimit:10;stroke-dasharray:none;stroke-opacity:1"
             id="path130" /></g><g
           id="g132"
           transform="translate(139.7737,60.8718)"><path
             d="m 0,0 c 0,-9.684 4.006,-17.534 8.947,-17.534 4.941,0 8.947,7.85 8.947,17.534 0,9.684 -4.006,17.534 -8.947,17.534 C 4.006,17.534 0,9.684 0,0"
             style="fill:#233239;fill-opacity:1;fill-rule:nonzero;stroke:none"
             id="path134" /></g><g
           id="g136"
           transform="translate(139.7737,60.8718)"><path
             d="m 0,0 c 0,-9.684 4.006,-17.534 8.947,-17.534 4.941,0 8.947,7.85 8.947,17.534 0,9.684 -4.006,17.534 -8.947,17.534 C 4.006,17.534 0,9.684 0,0 Z"
             style="fill:none;stroke:#233239;stroke-width:1;stroke-linecap:butt;stroke-linejoin:miter;stroke-miterlimit:10;stroke-dasharray:none;stroke-opacity:1"
             id="path138" /></g><g
           id="g140"
           transform="translate(142.4219,60.7744)"><path
             d="m 0,0 c 0,-6.671 2.495,-12.079 5.572,-12.079 3.077,0 5.572,5.408 5.572,12.079 0,6.671 -2.495,12.079 -5.572,12.079 C 2.495,12.079 0,6.671 0,0"
             style="fill:#828282;fill-opacity:1;fill-rule:nonzero;stroke:none"
             id="path142" /></g><g
           id="g144"
           transform="translate(142.4219,60.7744)"><path
             d="m 0,0 c 0,-6.671 2.495,-12.079 5.572,-12.079 3.077,0 5.572,5.408 5.572,12.079 0,6.671 -2.495,12.079 -5.572,12.079 C 2.495,12.079 0,6.671 0,0 Z"
             style="fill:none;stroke:#233239;stroke-width:1;stroke-linecap:butt;stroke-linejoin:miter;stroke-miterlimit:10;stroke-dasharray:none;stroke-opacity:1"
             id="path146" /></g><g
           id="g148"
           transform="translate(85.6029,190.5566)"><path
             d="m 0,0 c 1.219,-1.222 2.032,-2.889 2.032,-5.164 v -126.211 c 0,-3.29 2.667,-5.956 5.956,-5.956 h 79.989"
             style="fill:none;stroke:#233239;stroke-width:4;stroke-linecap:round;stroke-linejoin:round;stroke-miterlimit:10;stroke-dasharray:none;stroke-opacity:1"
             id="path150" /></g><g
           id="g152"
           transform="translate(136.4552,193.8735)"><path
             d="M 0,0 C 0,0 7.315,0.348 10.973,-3.317"
             style="fill:none;stroke:#233239;stroke-width:6;stroke-linecap:round;stroke-linejoin:round;stroke-miterlimit:10;stroke-dasharray:none;stroke-opacity:1"
             id="path154" /></g><g
           id="g156"
           transform="translate(147.4279,190.5566)"><path
             d="M 0,0 C 1.219,-1.222 2.032,-2.889 2.032,-5.164 V -136.82"
             style="fill:none;stroke:#233239;stroke-width:4;stroke-linecap:round;stroke-linejoin:round;stroke-miterlimit:10;stroke-dasharray:none;stroke-opacity:1"
             id="path158" /></g><g
           id="g160"
           transform="translate(88.3408,160.4006)"><path
             d="M 0,0 H 61.645"
             style="fill:none;stroke:#233239;stroke-width:4;stroke-linecap:round;stroke-linejoin:round;stroke-miterlimit:10;stroke-dasharray:none;stroke-opacity:1"
             id="path162" /></g><g
           id="g164"
           transform="translate(120.0586,160.6564)"><path
             d="M 0,0 V -106.664"
             style="fill:none;stroke:#233239;stroke-width:4;stroke-linecap:round;stroke-linejoin:round;stroke-miterlimit:10;stroke-dasharray:none;stroke-opacity:1"
             id="path166" /></g><g
           id="g168"
           transform="translate(78.6578,69.0972)"><path
             d="M 0,0 9.111,17.858"
             style="fill:none;stroke:#233239;stroke-width:4;stroke-linecap:round;stroke-linejoin:round;stroke-miterlimit:10;stroke-dasharray:none;stroke-opacity:1"
             id="path170" /></g><g
           id="g172"
           transform="translate(87.5869,60.897)"><path
             d="M 0,0 H -8.565"
             style="fill:none;stroke:#233239;stroke-width:4;stroke-linecap:round;stroke-linejoin:round;stroke-miterlimit:10;stroke-dasharray:none;stroke-opacity:1"
             id="path174" /></g><g
           id="g176"
           transform="translate(64.0388,60.8718)"><path
             d="m 0,0 c 0,2.965 0.377,5.757 1.04,8.205 v 9.329 h 7.907 c 4.941,0 8.947,-7.85 8.947,-17.534 0,-9.684 -4.006,-17.534 -8.947,-17.534 H 1.04 v 9.329 C 0.377,-5.757 0,-2.965 0,0"
             style="fill:#233239;fill-opacity:1;fill-rule:nonzero;stroke:none"
             id="path178" /></g><g
           id="g180"
           transform="translate(64.0388,60.8718)"><path
             d="m 0,0 c 0,2.965 0.377,5.757 1.04,8.205 v 9.329 h 7.907 c 4.941,0 8.947,-7.85 8.947,-17.534 0,-9.684 -4.006,-17.534 -8.947,-17.534 H 1.04 v 9.329 C 0.377,-5.757 0,-2.965 0,0 Z"
             style="fill:none;stroke:#233239;stroke-width:1;stroke-linecap:butt;stroke-linejoin:miter;stroke-miterlimit:10;stroke-dasharray:none;stroke-opacity:1"
             id="path182" /></g><g
           id="g184"
           transform="translate(56.1319,60.8718)"><path
             d="m 0,0 c 0,-9.684 4.006,-17.534 8.947,-17.534 4.941,0 8.947,7.85 8.947,17.534 0,9.684 -4.006,17.534 -8.947,17.534 C 4.006,17.534 0,9.684 0,0"
             style="fill:#233239;fill-opacity:1;fill-rule:nonzero;stroke:none"
             id="path186" /></g><g
           id="g188"
           transform="translate(56.1319,60.8718)"><path
             d="m 0,0 c 0,-9.684 4.006,-17.534 8.947,-17.534 4.941,0 8.947,7.85 8.947,17.534 0,9.684 -4.006,17.534 -8.947,17.534 C 4.006,17.534 0,9.684 0,0 Z"
             style="fill:none;stroke:#233239;stroke-width:1;stroke-linecap:butt;stroke-linejoin:miter;stroke-miterlimit:10;stroke-dasharray:none;stroke-opacity:1"
             id="path190" /></g><g
           id="g192"
           transform="translate(58.7801,60.7744)"><path
             d="m 0,0 c 0,-6.671 2.495,-12.079 5.572,-12.079 3.077,0 5.572,5.408 5.572,12.079 0,6.671 -2.495,12.079 -5.572,12.079 C 2.495,12.079 0,6.671 0,0"
             style="fill:#ffffff;fill-opacity:1;fill-rule:nonzero;stroke:none"
             id="path194" /></g><g
           id="g196"
           transform="translate(58.7801,60.7744)"><path
             d="m 0,0 c 0,-6.671 2.495,-12.079 5.572,-12.079 3.077,0 5.572,5.408 5.572,12.079 0,6.671 -2.495,12.079 -5.572,12.079 C 2.495,12.079 0,6.671 0,0 Z"
             style="fill:none;stroke:#233239;stroke-width:1;stroke-linecap:butt;stroke-linejoin:miter;stroke-miterlimit:10;stroke-dasharray:none;stroke-opacity:1"
             id="path198" /></g></g></g><g
       id="g200"><g
         id="g202"
         clip-path="url(#clipPath206)"><g
           id="g208"
           transform="translate(466.5428,72.7395)"><path
             d="m 0,0 60.726,-2.182 83.54,0.809 32.072,1.576 c 0,0 6.568,17.615 4.023,27.069 -2.546,9.455 -5.818,13.455 -13.091,13.455 -7.273,0 -19.712,-5.923 -20.219,-10.234 -0.508,-4.312 -4.132,-9.22 -4.132,-9.22 H 56.363 c 0,0 -3.273,18.726 -14.909,25.272 -11.636,6.545 -26.909,6.181 -34.909,0 C -1.454,40.363 0,0 0,0"
             style="fill:#233239;fill-opacity:1;fill-rule:nonzero;stroke:none"
             id="path210" /></g><g
           id="g212"
           transform="translate(466.5428,72.7395)"><path
             d="m 0,0 60.726,-2.182 83.54,0.809 32.072,1.576 c 0,0 6.568,17.615 4.023,27.069 -2.546,9.455 -5.818,13.455 -13.091,13.455 -7.273,0 -19.712,-5.923 -20.219,-10.234 -0.508,-4.312 -4.132,-9.22 -4.132,-9.22 H 56.363 c 0,0 -3.273,18.726 -14.909,25.272 -11.636,6.545 -26.909,6.181 -34.909,0 C -1.454,40.363 0,0 0,0 Z"
             style="fill:none;stroke:#233239;stroke-width:1;stroke-linecap:butt;stroke-linejoin:miter;stroke-miterlimit:10;stroke-dasharray:none;stroke-opacity:1"
             id="path214" /></g><g
           id="g216"
           transform="translate(628.8739,73.2848)"><path
             d="m 0,0 c 0,5.064 -0.644,9.832 -1.776,14.014 v 15.933 h -13.505 c -8.439,0 -15.28,-13.408 -15.28,-29.947 0,-16.539 6.841,-29.947 15.28,-29.947 h 13.505 v 15.933 C -0.644,-9.832 0,-5.064 0,0"
             style="fill:#233239;fill-opacity:1;fill-rule:nonzero;stroke:none"
             id="path218" /></g><g
           id="g220"
           transform="translate(628.8739,73.2848)"><path
             d="m 0,0 c 0,5.064 -0.644,9.832 -1.776,14.014 v 15.933 h -13.505 c -8.439,0 -15.28,-13.408 -15.28,-29.947 0,-16.539 6.841,-29.947 15.28,-29.947 h 13.505 v 15.933 C -0.644,-9.832 0,-5.064 0,0 Z"
             style="fill:none;stroke:#233239;stroke-width:1;stroke-linecap:butt;stroke-linejoin:miter;stroke-miterlimit:10;stroke-dasharray:none;stroke-opacity:1"
             id="path222" /></g><g
           id="g224"
           transform="translate(642.3783,73.2848)"><path
             d="m 0,0 c 0,-16.539 -6.841,-29.947 -15.281,-29.947 -8.439,0 -15.28,13.408 -15.28,29.947 0,16.539 6.841,29.947 15.28,29.947 C -6.841,29.947 0,16.539 0,0"
             style="fill:#616161;fill-opacity:1;fill-rule:nonzero;stroke:none"
             id="path226" /></g><g
           id="g228"
           transform="translate(642.3783,73.2848)"><path
             d="m 0,0 c 0,-16.539 -6.841,-29.947 -15.281,-29.947 -8.439,0 -15.28,13.408 -15.28,29.947 0,16.539 6.841,29.947 15.28,29.947 C -6.841,29.947 0,16.539 0,0 Z"
             style="fill:none;stroke:#233239;stroke-width:1;stroke-linecap:butt;stroke-linejoin:miter;stroke-miterlimit:10;stroke-dasharray:none;stroke-opacity:1"
             id="path230" /></g><g
           id="g232"
           transform="translate(637.8553,73.1183)"><path
             d="m 0,0 c 0,-11.394 -4.261,-20.63 -9.516,-20.63 -5.256,0 -9.517,9.236 -9.517,20.63 0,11.394 4.261,20.63 9.517,20.63 C -4.261,20.63 0,11.394 0,0"
             style="fill:#e0e0e0;fill-opacity:1;fill-rule:nonzero;stroke:none"
             id="path234" /></g><g
           id="g236"
           transform="translate(637.8553,73.1183)"><path
             d="m 0,0 c 0,-11.394 -4.261,-20.63 -9.516,-20.63 -5.256,0 -9.517,9.236 -9.517,20.63 0,11.394 4.261,20.63 9.517,20.63 C -4.261,20.63 0,11.394 0,0 Z"
             style="fill:none;stroke:#233239;stroke-width:1;stroke-linecap:butt;stroke-linejoin:miter;stroke-miterlimit:10;stroke-dasharray:none;stroke-opacity:1"
             id="path238" /></g><g
           id="g240"
           transform="translate(507.9499,103.2321)"><path
             d="m 0,0 h -13.504 c -8.44,0 -15.281,-13.408 -15.281,-29.947 0,-16.54 6.841,-29.948 15.281,-29.948 H 0 c 8.439,0 15.281,13.408 15.281,29.948 C 15.281,-13.408 8.439,0 0,0"
             style="fill:#233239;fill-opacity:1;fill-rule:nonzero;stroke:none"
             id="path242" /></g><g
           id="g244"
           transform="translate(507.9499,103.2321)"><path
             d="m 0,0 h -13.504 c -8.44,0 -15.281,-13.408 -15.281,-29.947 0,-16.54 6.841,-29.948 15.281,-29.948 H 0 c 8.439,0 15.281,13.408 15.281,29.948 C 15.281,-13.408 8.439,0 0,0 Z"
             style="fill:none;stroke:#233239;stroke-width:1;stroke-linecap:butt;stroke-linejoin:miter;stroke-miterlimit:10;stroke-dasharray:none;stroke-opacity:1"
             id="path246" /></g><g
           id="g248"
           transform="translate(354.9657,103.2321)"><path
             d="m 0,0 h -14.69 c -9.18,0 -16.622,-13.408 -16.622,-29.947 0,-16.54 7.442,-29.948 16.622,-29.948 H 0 c 9.18,0 16.622,13.408 16.622,29.948 C 16.622,-13.408 9.18,0 0,0"
             style="fill:#233239;fill-opacity:1;fill-rule:nonzero;stroke:none"
             id="path250" /></g><g
           id="g252"
           transform="translate(354.9657,103.2321)"><path
             d="m 0,0 h -14.69 c -9.18,0 -16.622,-13.408 -16.622,-29.947 0,-16.54 7.442,-29.948 16.622,-29.948 H 0 c 9.18,0 16.622,13.408 16.622,29.948 C 16.622,-13.408 9.18,0 0,0 Z"
             style="fill:none;stroke:#233239;stroke-width:1;stroke-linecap:butt;stroke-linejoin:miter;stroke-miterlimit:10;stroke-dasharray:none;stroke-opacity:1"
             id="path254" /></g><g
           id="g256"
           transform="translate(497.6643,78.1446)"><path
             d="M 0,0 C 0,5.886 -0.748,11.427 -2.064,16.288 V 34.807 H -17.76 c -9.809,0 -17.76,-15.584 -17.76,-34.807 0,-19.223 7.951,-34.807 17.76,-34.807 h 15.696 v 18.519 C -0.748,-11.428 0,-5.886 0,0"
             style="fill:#233239;fill-opacity:1;fill-rule:nonzero;stroke:none"
             id="path258" /></g><g
           id="g260"
           transform="translate(497.6643,78.1446)"><path
             d="M 0,0 C 0,5.886 -0.748,11.427 -2.064,16.288 V 34.807 H -17.76 c -9.809,0 -17.76,-15.584 -17.76,-34.807 0,-19.223 7.951,-34.807 17.76,-34.807 h 15.696 v 18.519 C -0.748,-11.428 0,-5.886 0,0 Z"
             style="fill:none;stroke:#233239;stroke-width:1;stroke-linecap:butt;stroke-linejoin:miter;stroke-miterlimit:10;stroke-dasharray:none;stroke-opacity:1"
             id="path262" /></g><g
           id="g264"
           transform="translate(513.3601,78.1446)"><path
             d="m 0,0 c 0,-19.223 -7.952,-34.807 -17.76,-34.807 -9.809,0 -17.76,15.584 -17.76,34.807 0,19.223 7.951,34.807 17.76,34.807 C -7.952,34.807 0,19.223 0,0"
             style="fill:#616161;fill-opacity:1;fill-rule:nonzero;stroke:none"
             id="path266" /></g><g
           id="g268"
           transform="translate(513.3601,78.1446)"><path
             d="m 0,0 c 0,-19.223 -7.952,-34.807 -17.76,-34.807 -9.809,0 -17.76,15.584 -17.76,34.807 0,19.223 7.951,34.807 17.76,34.807 C -7.952,34.807 0,19.223 0,0 Z"
             style="fill:none;stroke:#233239;stroke-width:1;stroke-linecap:butt;stroke-linejoin:miter;stroke-miterlimit:10;stroke-dasharray:none;stroke-opacity:1"
             id="path270" /></g><g
           id="g272"
           transform="translate(508.1032,77.9511)"><path
             d="m 0,0 c 0,-13.243 -4.952,-23.978 -11.061,-23.978 -6.108,0 -11.061,10.735 -11.061,23.978 0,13.243 4.953,23.978 11.061,23.978 C -4.952,23.978 0,13.243 0,0"
             style="fill:#e0e0e0;fill-opacity:1;fill-rule:nonzero;stroke:none"
             id="path274" /></g><g
           id="g276"
           transform="translate(508.1032,77.9511)"><path
             d="m 0,0 c 0,-13.243 -4.952,-23.978 -11.061,-23.978 -6.108,0 -11.061,10.735 -11.061,23.978 0,13.243 4.953,23.978 11.061,23.978 C -4.952,23.978 0,13.243 0,0 Z"
             style="fill:none;stroke:#233239;stroke-width:1;stroke-linecap:butt;stroke-linejoin:miter;stroke-miterlimit:10;stroke-dasharray:none;stroke-opacity:1"
             id="path278" /></g><g
           id="g280"
           transform="translate(644.9217,124.2143)"><path
             d="m 0,0 c -2.831,8.845 -62.626,132.328 -67.226,137.282 -4.599,4.953 -90.223,31.489 -90.223,31.489 0,0 -39.274,11.676 -52.012,12.384 -12.737,0.708 -122.067,-8.491 -124.19,-9.199 -2.123,-0.708 -16.276,-44.581 -20.168,-63.688 -3.892,-19.106 -5.661,-58.026 -5.661,-96.238 0,-38.213 5.307,-66.164 11.322,-66.164 6.015,0 163.111,-4.6 165.588,-4.6 2.476,0 6.014,2.831 12.383,11.322 6.369,8.492 11.676,33.967 18.753,37.151 7.076,3.185 14.86,1.415 18.752,-7.43 3.892,-8.845 2.83,-36.443 2.83,-36.443 0,0 57.574,0.321 95.739,1.286 1.414,3.821 5.246,14.042 10.019,25.677 6.062,14.776 16.291,13.26 20.838,9.472 4.098,-3.415 3.577,-21.911 1.215,-33.573 0.56,0.104 0.9,0.211 0.98,0.322 1.769,2.477 3.538,9.199 4.953,18.045 C 5.307,-24.06 2.831,-8.846 0,0"
             style="fill:#ffffff;fill-opacity:1;fill-rule:nonzero;stroke:none"
             id="path282" /></g><g
           id="g284"
           transform="translate(644.9217,124.2143)"><path
             d="m 0,0 c -2.831,8.845 -62.626,132.328 -67.226,137.282 -4.599,4.953 -90.223,31.489 -90.223,31.489 0,0 -39.274,11.676 -52.012,12.384 -12.737,0.708 -122.067,-8.491 -124.19,-9.199 -2.123,-0.708 -16.276,-44.581 -20.168,-63.688 -3.892,-19.106 -5.661,-58.026 -5.661,-96.238 0,-38.213 5.307,-66.164 11.322,-66.164 6.015,0 163.111,-4.6 165.588,-4.6 2.476,0 6.014,2.831 12.383,11.322 6.369,8.492 11.676,33.967 18.753,37.151 7.076,3.185 14.86,1.415 18.752,-7.43 3.892,-8.845 2.83,-36.443 2.83,-36.443 0,0 57.574,0.321 95.739,1.286 1.414,3.821 5.246,14.042 10.019,25.677 6.062,14.776 16.291,13.26 20.838,9.472 4.098,-3.415 3.577,-21.911 1.215,-33.573 0.56,0.104 0.9,0.211 0.98,0.322 1.769,2.477 3.538,9.199 4.953,18.045 C 5.307,-24.06 2.831,-8.846 0,0 Z"
             style="fill:none;stroke:#233239;stroke-width:1;stroke-linecap:butt;stroke-linejoin:miter;stroke-miterlimit:10;stroke-dasharray:none;stroke-opacity:1"
             id="path286" /></g><g
           id="g288"
           transform="translate(515.0702,70.08)"><path
             d="m 0,0 c 0,0 57.574,0.321 95.738,1.286 1.415,3.822 5.246,14.042 10.02,25.677 6.061,14.776 16.291,13.261 20.837,9.472 4.098,-3.415 3.578,-21.911 1.216,-33.573 0.559,0.104 0.9,0.212 0.979,0.322 1.769,2.477 3.538,9.2 4.953,18.045 1.416,8.846 -1.061,24.06 -3.891,32.905 -2.831,8.846 -62.626,132.329 -67.226,137.282 -4.6,4.953 -90.224,31.49 -90.224,31.49 0,0 -39.274,11.676 -52.011,12.384 -0.071,0.003 -0.16,0.005 -0.237,0.009 l 0.481,-2.241 c 0,0 10.582,-20.426 8.552,-237.165 10.705,-0.303 17.591,-0.493 18.094,-0.493 2.477,0 6.015,2.831 12.384,11.323 6.369,8.491 11.676,33.966 18.752,37.151 7.076,3.184 14.86,1.415 18.752,-7.431 C 1.062,27.598 0,0 0,0"
             style="fill:#e0e0e0;fill-opacity:1;fill-rule:nonzero;stroke:none"
             id="path290" /></g><g
           id="g292"
           transform="translate(515.0702,70.08)"><path
             d="m 0,0 c 0,0 57.574,0.321 95.738,1.286 1.415,3.822 5.246,14.042 10.02,25.677 6.061,14.776 16.291,13.261 20.837,9.472 4.098,-3.415 3.578,-21.911 1.216,-33.573 0.559,0.104 0.9,0.212 0.979,0.322 1.769,2.477 3.538,9.2 4.953,18.045 1.416,8.846 -1.061,24.06 -3.891,32.905 -2.831,8.846 -62.626,132.329 -67.226,137.282 -4.6,4.953 -90.224,31.49 -90.224,31.49 0,0 -39.274,11.676 -52.011,12.384 -0.071,0.003 -0.16,0.005 -0.237,0.009 l 0.481,-2.241 c 0,0 10.582,-20.426 8.552,-237.165 10.705,-0.303 17.591,-0.493 18.094,-0.493 2.477,0 6.015,2.831 12.384,11.323 6.369,8.491 11.676,33.966 18.752,37.151 7.076,3.184 14.86,1.415 18.752,-7.431 C 1.062,27.598 0,0 0,0 Z"
             style="fill:none;stroke:#233239;stroke-width:1;stroke-linecap:butt;stroke-linejoin:miter;stroke-miterlimit:10;stroke-dasharray:none;stroke-opacity:1"
             id="path294" /></g><g
           id="g296"
           transform="translate(643.7026,102.4055)"><path
             d="m 0,0 c 1.749,-6.985 1.03,-20.322 -0.822,-29.463 0.56,0.104 0.9,0.211 0.98,0.322 1.769,2.477 3.538,9.199 4.953,18.045 C 6.041,-5.285 5.286,3.269 3.86,10.966 3.677,7.137 2.781,2.722 0,0"
             style="fill:#233239;fill-opacity:1;fill-rule:nonzero;stroke:none"
             id="path298" /></g><g
           id="g300"
           transform="translate(643.7026,102.4055)"><path
             d="m 0,0 c 1.749,-6.985 1.03,-20.322 -0.822,-29.463 0.56,0.104 0.9,0.211 0.98,0.322 1.769,2.477 3.538,9.199 4.953,18.045 C 6.041,-5.285 5.286,3.269 3.86,10.966 3.677,7.137 2.781,2.722 0,0 Z"
             style="fill:none;stroke:#233239;stroke-width:1;stroke-linecap:butt;stroke-linejoin:miter;stroke-miterlimit:10;stroke-dasharray:none;stroke-opacity:1"
             id="path302" /></g><g
           id="g304"
           transform="translate(492.4869,113.3346)"><path
             d="m 0,0 h -206.361 c 1.618,-25.965 5.908,-43.255 10.638,-43.255 6.015,0 163.111,-4.599 165.587,-4.599 2.477,0 6.015,2.83 12.384,11.322 C -11.687,-28.446 -6.584,-4.974 0,0"
             style="fill:#233239;fill-opacity:1;fill-rule:nonzero;stroke:none"
             id="path306" /></g><g
           id="g308"
           transform="translate(492.4869,113.3346)"><path
             d="m 0,0 h -206.361 c 1.618,-25.965 5.908,-43.255 10.638,-43.255 6.015,0 163.111,-4.599 165.587,-4.599 2.477,0 6.015,2.83 12.384,11.322 C -11.687,-28.446 -6.584,-4.974 0,0 Z"
             style="fill:none;stroke:#233239;stroke-width:1;stroke-linecap:butt;stroke-linejoin:miter;stroke-miterlimit:10;stroke-dasharray:none;stroke-opacity:1"
             id="path310" /></g><g
           id="g312"
           transform="translate(357.8432,298.5957)"><path
             d="M 0,0 V -0.495 C 0,-2.2 1.457,-3.541 3.156,-3.4 l 20.167,1.681 c 1.511,0.126 2.672,1.389 2.672,2.904 v 0.496 c 0,1.705 -1.457,3.045 -3.156,2.904 L 2.672,2.904 C 1.162,2.778 0,1.516 0,0 Z"
             style="fill:none;stroke:#233239;stroke-width:1;stroke-linecap:butt;stroke-linejoin:miter;stroke-miterlimit:10;stroke-dasharray:none;stroke-opacity:1"
             id="path314" /></g><g
           id="g316"
           transform="translate(435.7051,303.1375)"><path
             d="m 0,0 c 0,0 4.638,-96.86 4.638,-109.956 0,-13.097 1.365,-110.502 1.365,-110.502 l 51.84,-0.546 c 0,0 4.365,30.559 4.365,62.482 0,31.922 -4.911,108.319 -7.639,130.692 -2.729,22.373 -6.276,39.289 -6.276,39.289 z"
             style="fill:#ffffff;fill-opacity:1;fill-rule:nonzero;stroke:none"
             id="path318" /></g><g
           id="g320"
           transform="translate(435.7051,303.1375)"><path
             d="m 0,0 c 0,0 4.638,-96.86 4.638,-109.956 0,-13.097 1.365,-110.502 1.365,-110.502 l 51.84,-0.546 c 0,0 4.365,30.559 4.365,62.482 0,31.922 -4.911,108.319 -7.639,130.692 -2.729,22.373 -6.276,39.289 -6.276,39.289 z"
             style="fill:none;stroke:#233239;stroke-width:1;stroke-linecap:butt;stroke-linejoin:miter;stroke-miterlimit:10;stroke-dasharray:none;stroke-opacity:1"
             id="path322" /></g><g
           id="g324"
           transform="translate(445.5275,172.7181)"><path
             d="m 0,0 38.198,1.637 c 0,0 1.91,-29.194 0,-49.93 -1.91,-20.736 -2.728,-25.92 -3.82,-27.012 -1.091,-1.091 -34.378,0 -34.378,0 0,0 -2.183,2.183 -2.183,5.73 0,3.547 -0.818,64.664 -0.818,66.574 0,1.91 1.091,2.183 3.001,3.001"
             style="fill:#233239;fill-opacity:1;fill-rule:nonzero;stroke:none"
             id="path326" /></g><g
           id="g328"
           transform="translate(445.5275,172.7181)"><path
             d="m 0,0 38.198,1.637 c 0,0 1.91,-29.194 0,-49.93 -1.91,-20.736 -2.728,-25.92 -3.82,-27.012 -1.091,-1.091 -34.378,0 -34.378,0 0,0 -2.183,2.183 -2.183,5.73 0,3.547 -0.818,64.664 -0.818,66.574 0,1.91 1.091,2.183 3.001,3.001 z"
             style="fill:none;stroke:#233239;stroke-width:1;stroke-linecap:butt;stroke-linejoin:miter;stroke-miterlimit:10;stroke-dasharray:none;stroke-opacity:1"
             id="path330" /></g><g
           id="g332"
           transform="translate(440.6163,286.2212)"><path
             d="m 0,0 1.091,-12.278 37.926,5.73 c 0,0 -0.273,3.274 -2.729,8.458 -2.455,5.184 -5.729,6.821 -5.729,6.821 L 2.728,2.456"
             style="fill:none;stroke:#233239;stroke-width:1;stroke-linecap:butt;stroke-linejoin:miter;stroke-miterlimit:10;stroke-dasharray:none;stroke-opacity:1"
             id="path334" /></g><g
           id="g336"
           transform="translate(476.086,309.4129)"><path
             d="m 0,0 c 0,0 6.275,-16.643 11.187,-61.663 4.911,-45.019 6.821,-136.694 3.001,-155.248 0,0 0,-3.001 -3.001,-5.184 -3.002,-2.183 -42.018,-1.364 -42.018,-1.364"
             style="fill:none;stroke:#233239;stroke-width:1;stroke-linecap:butt;stroke-linejoin:miter;stroke-miterlimit:10;stroke-dasharray:none;stroke-opacity:1"
             id="path338" /></g><g
           id="g340"
           transform="translate(477.7231,268.4863)"><path
             d="m 0,0 c 0,0 1.637,4.911 5.184,-30.831 3.547,-35.743 3.82,-49.112 2.183,-50.204 -1.637,-1.091 -36.561,-3.001 -36.561,-3.001"
             style="fill:none;stroke:#233239;stroke-width:1;stroke-linecap:butt;stroke-linejoin:miter;stroke-miterlimit:10;stroke-dasharray:none;stroke-opacity:1"
             id="path342" /></g><g
           id="g344"
           transform="translate(467.0822,268.7592)"><path
             d="m 0,0 c 0,0 -21.827,-2.456 -23.465,-4.365 -1.637,-1.91 1.91,-17.462 2.729,-42.837 0.818,-25.374 0.818,-31.377 0.818,-31.377"
             style="fill:none;stroke:#233239;stroke-width:1;stroke-linecap:butt;stroke-linejoin:miter;stroke-miterlimit:10;stroke-dasharray:none;stroke-opacity:1"
             id="path346" /></g><g
           id="g348"
           transform="translate(477.1774,261.3924)"><path
             d="m 0,0 -27.284,-4.366 c 0,0 -2.729,-0.818 -2.183,-3.819 0.546,-3.002 4.092,-41.745 3.274,-61.663"
             style="fill:none;stroke:#233239;stroke-width:1;stroke-linecap:butt;stroke-linejoin:miter;stroke-miterlimit:10;stroke-dasharray:none;stroke-opacity:1"
             id="path350" /></g><g
           id="g352"
           transform="translate(274.1983,223.4337)"><path
             d="M 0,0 V -96.607"
             style="fill:none;stroke:#233239;stroke-width:1;stroke-linecap:butt;stroke-linejoin:miter;stroke-miterlimit:10;stroke-dasharray:none;stroke-opacity:1"
             id="path354" /></g><g
           id="g356"
           transform="translate(278.4032,234.4569)"><path
             d="m 0,0 0.206,12.383 c 0,0 -8.668,44.372 -9.287,45.198 -0.619,0.825 -71.408,1.444 -72.234,1.032 -0.825,-0.413 -0.206,-4.747 -0.206,-4.747 0,0 0.825,-14.24 1.445,-59.851 0.619,-45.611 -0.207,-138.896 -0.207,-138.896 l 79.045,-0.619 c 0,0 -0.826,6.192 0.412,26.624 1.239,20.432 1.445,114.129 1.445,114.955 v 2.683 z"
             style="fill:#ffffff;fill-opacity:1;fill-rule:nonzero;stroke:none"
             id="path358" /></g><g
           id="g360"
           transform="translate(278.4032,234.4569)"><path
             d="m 0,0 0.206,12.383 c 0,0 -8.668,44.372 -9.287,45.198 -0.619,0.825 -71.408,1.444 -72.234,1.032 -0.825,-0.413 -0.206,-4.747 -0.206,-4.747 0,0 0.825,-14.24 1.445,-59.851 0.619,-45.611 -0.207,-138.896 -0.207,-138.896 l 79.045,-0.619 c 0,0 -0.826,6.192 0.412,26.624 1.239,20.432 1.445,114.129 1.445,114.955 v 2.683 z"
             style="fill:none;stroke:#233239;stroke-width:1;stroke-linecap:butt;stroke-linejoin:miter;stroke-miterlimit:10;stroke-dasharray:none;stroke-opacity:1"
             id="path362" /></g><g
           id="g364"
           transform="translate(200.835,289.8965)"><path
             d="m 0,0 c 0,0 60.47,-0.908 62.105,-1.271 1.634,-0.363 2.724,-3.632 3.268,-5.448 0.545,-1.816 8.172,-35.047 8.717,-39.95"
             style="fill:none;stroke:#233239;stroke-width:1;stroke-linecap:butt;stroke-linejoin:miter;stroke-miterlimit:10;stroke-dasharray:none;stroke-opacity:1"
             id="path366" /></g><g
           id="g368"
           transform="translate(274.1983,113.9335)"><path
             d="m 0,0 c 0,0 0.363,-11.985 -0.908,-14.527 -1.271,-2.543 -2.724,-3.269 -4.721,-3.632 -1.998,-0.363 -68.461,0.726 -68.461,0.726"
             style="fill:none;stroke:#233239;stroke-width:1;stroke-linecap:butt;stroke-linejoin:miter;stroke-miterlimit:10;stroke-dasharray:none;stroke-opacity:1"
             id="path370" /></g><g
           id="g372"
           transform="translate(205.5564,169.6823)"><path
             d="m 0,0 -0.908,-66.281 64.829,-0.908 c 0,0 1.452,65.736 1.271,66.644 C 65.01,0.363 65.01,1.271 61.378,1.634 57.746,1.998 3.632,2.542 2.724,2.542 1.816,2.542 0.363,1.453 0,0"
             style="fill:#233239;fill-opacity:1;fill-rule:nonzero;stroke:none"
             id="path374" /></g><g
           id="g376"
           transform="translate(205.5564,169.6823)"><path
             d="m 0,0 -0.908,-66.281 64.829,-0.908 c 0,0 1.452,65.736 1.271,66.644 C 65.01,0.363 65.01,1.271 61.378,1.634 57.746,1.998 3.632,2.542 2.724,2.542 1.816,2.542 0.363,1.453 0,0 Z"
             style="fill:none;stroke:#233239;stroke-width:1;stroke-linecap:butt;stroke-linejoin:miter;stroke-miterlimit:10;stroke-dasharray:none;stroke-opacity:1"
             id="path378" /></g><g
           id="g380"
           transform="translate(211.0041,276.6403)"><path
             d="m 0,0 c 0,0 -5.993,-8.353 -6.537,-10.351 -0.545,-1.997 0,-3.45 1.452,-3.632 1.453,-0.181 56.294,0 56.294,0 0,0 1.998,0.364 1.816,3.451"
             style="fill:none;stroke:#233239;stroke-width:1;stroke-linecap:butt;stroke-linejoin:miter;stroke-miterlimit:10;stroke-dasharray:none;stroke-opacity:1"
             id="path382" /></g><g
           id="g384"
           transform="translate(214.636,277.1851)"><path
             d="m 0,0 h 45.035 c 0,0 1.453,0 2.361,-3.813"
             style="fill:none;stroke:#233239;stroke-width:1;stroke-linecap:butt;stroke-linejoin:miter;stroke-miterlimit:10;stroke-dasharray:none;stroke-opacity:1"
             id="path386" /></g><g
           id="g388"
           transform="translate(218.631,250.1278)"><path
             d="m 0,0 c 0,0 -4.358,-1.453 -4.54,-5.448 -0.181,-3.995 0.908,-58.109 0.908,-58.109"
             style="fill:none;stroke:#233239;stroke-width:1;stroke-linecap:butt;stroke-linejoin:miter;stroke-miterlimit:10;stroke-dasharray:none;stroke-opacity:1"
             id="path390" /></g><g
           id="g392"
           transform="translate(225.5315,250.3094)"><path
             d="m 0,0 c 0,0 34.139,-0.908 36.319,-1.271 2.179,-0.363 4.176,-2.724 4.721,-4.54 0.545,-1.816 0.545,-55.204 0.545,-55.204"
             style="fill:none;stroke:#233239;stroke-width:1;stroke-linecap:butt;stroke-linejoin:miter;stroke-miterlimit:10;stroke-dasharray:none;stroke-opacity:1"
             id="path394" /></g><g
           id="g396"
           transform="translate(220.8101,254.3044)"><path
             d="m 0,0 c 0,0 -7.264,0.182 -10.532,-1.816 -3.269,-1.997 -2.724,-7.264 -2.543,-9.261 0.182,-1.998 0.727,-55.749 0.727,-55.749 0,0 0,-2.179 2.905,-2.361 2.906,-0.181 51.391,-0.181 51.391,-0.181 0,0 1.997,0 3.087,1.634"
             style="fill:none;stroke:#233239;stroke-width:1;stroke-linecap:butt;stroke-linejoin:miter;stroke-miterlimit:10;stroke-dasharray:none;stroke-opacity:1"
             id="path398" /></g><g
           id="g400"
           transform="translate(227.8922,255.0308)"><path
             d="m 0,0 c 0,0 33.595,-0.908 36.682,-2.361 3.087,-1.453 2.542,-4.176 2.724,-5.448"
             style="fill:none;stroke:#233239;stroke-width:1;stroke-linecap:butt;stroke-linejoin:miter;stroke-miterlimit:10;stroke-dasharray:none;stroke-opacity:1"
             id="path402" /></g><path
           d="m 292.437,228.265 h -15.891 v 5.572 h 15.891 z"
           style="fill:none;stroke:#233239;stroke-width:1;stroke-linecap:butt;stroke-linejoin:miter;stroke-miterlimit:10;stroke-dasharray:none;stroke-opacity:1"
           id="path404" /><path
           d="m 286.659,226.202 h -5.366 v 9.287 h 5.366 z"
           style="fill:none;stroke:#233239;stroke-width:1;stroke-linecap:butt;stroke-linejoin:miter;stroke-miterlimit:10;stroke-dasharray:none;stroke-opacity:1"
           id="path406" /><path
           d="m 290.992,117.438 h -15.891 v 5.572 h 15.891 z"
           style="fill:none;stroke:#233239;stroke-width:1;stroke-linecap:butt;stroke-linejoin:miter;stroke-miterlimit:10;stroke-dasharray:none;stroke-opacity:1"
           id="path408" /><path
           d="m 285.214,115.374 h -5.366 v 9.287 h 5.366 z"
           style="fill:none;stroke:#233239;stroke-width:1;stroke-linecap:butt;stroke-linejoin:miter;stroke-miterlimit:10;stroke-dasharray:none;stroke-opacity:1"
           id="path410" /><g
           id="g412"
           transform="translate(435.6208,295.3605)"><path
             d="m 0,0 -120.39,-9.143 c 0,0 -10.362,-52.423 -10.362,-53.338 0,-0.914 -3.353,-85.034 -2.134,-105.455 1.219,-20.42 1.524,-37.488 1.524,-37.488 l 136.543,-3.962 z"
             style="fill:#ffffff;fill-opacity:1;fill-rule:nonzero;stroke:none"
             id="path414" /></g><g
           id="g416"
           transform="translate(435.6208,295.3605)"><path
             d="m 0,0 -120.39,-9.143 c 0,0 -10.362,-52.423 -10.362,-53.338 0,-0.914 -3.353,-85.034 -2.134,-105.455 1.219,-20.42 1.524,-37.488 1.524,-37.488 l 136.543,-3.962 z"
             style="fill:none;stroke:#233239;stroke-width:1;stroke-linecap:butt;stroke-linejoin:miter;stroke-miterlimit:10;stroke-dasharray:none;stroke-opacity:1"
             id="path418" /></g><g
           id="g420"
           transform="translate(435.6208,295.3605)"><path
             d="m 0,0 -120.39,-9.143 c 0,0 -10.362,-52.423 -10.362,-53.338 0,-0.914 -3.353,-85.034 -2.134,-105.455 1.219,-20.42 1.524,-37.488 1.524,-37.488 l 136.543,-3.962 z"
             style="fill:#233239;fill-opacity:1;fill-rule:nonzero;stroke:none"
             id="path422" /></g><g
           id="g424"
           transform="translate(435.6208,295.3605)"><path
             d="m 0,0 -120.39,-9.143 c 0,0 -10.362,-52.423 -10.362,-53.338 0,-0.914 -3.353,-85.034 -2.134,-105.455 1.219,-20.42 1.524,-37.488 1.524,-37.488 l 136.543,-3.962 z"
             style="fill:none;stroke:#233239;stroke-width:1;stroke-linecap:butt;stroke-linejoin:miter;stroke-miterlimit:10;stroke-dasharray:none;stroke-opacity:1"
             id="path426" /></g><g
           id="g428"
           transform="translate(396.261,87.2667)"><path
             d="M 0,0 V 64.645 H -26.611 V 0.772 Z"
             style="fill:#75e6a4;fill-opacity:1;fill-rule:nonzero;stroke:none"
             id="path430" /></g><g
           id="g432"
           transform="translate(396.261,87.2667)"><path
             d="M 0,0 V 64.645 H -26.611 V 0.772 Z"
             style="fill:none;stroke:#233239;stroke-width:1;stroke-linecap:butt;stroke-linejoin:miter;stroke-miterlimit:10;stroke-dasharray:none;stroke-opacity:1"
             id="path434" /></g><g
           id="g436"
           transform="translate(315.2203,89.6183)"><path
             d="M 0,0 54.429,-1.579 V 62.294 H 0 Z"
             style="fill:#75e6a4;fill-opacity:1;fill-rule:nonzero;stroke:none"
             id="path438" /></g><g
           id="g440"
           transform="translate(315.2203,89.6183)"><path
             d="M 0,0 54.429,-1.579 V 62.294 H 0 Z"
             style="fill:none;stroke:#233239;stroke-width:1;stroke-linecap:butt;stroke-linejoin:miter;stroke-miterlimit:10;stroke-dasharray:none;stroke-opacity:1"
             id="path442" /></g><path
           d="m 336.739,151.912 h 11.392 v -30.456 h -11.392 z"
           style="fill:#ffffff;fill-opacity:1;fill-rule:nonzero;stroke:#233239;stroke-width:1;stroke-linecap:butt;stroke-linejoin:miter;stroke-miterlimit:10;stroke-dasharray:none;stroke-opacity:1"
           id="path444" /><g
           id="g446"
           transform="translate(425.326,86.4233)"><path
             d="M 0,0 H 15.465 L 15.242,9.023 13.845,65.488 H -51.516 V 1.495 Z"
             style="fill:#75e6a4;fill-opacity:1;fill-rule:nonzero;stroke:none"
             id="path448" /></g><g
           id="g450"
           transform="translate(425.326,86.4233)"><path
             d="M 0,0 H 15.465 L 15.242,9.023 13.845,65.488 H -51.516 V 1.495 Z"
             style="fill:none;stroke:#233239;stroke-width:1;stroke-linecap:butt;stroke-linejoin:miter;stroke-miterlimit:10;stroke-dasharray:none;stroke-opacity:1"
             id="path452" /></g><g
           id="g454"
           transform="translate(425.326,86.4233)"><path
             d="m 0,0 h 2.914 v 65.488 h -54.43 V 1.495 Z"
             style="fill:#75e6a4;fill-opacity:1;fill-rule:nonzero;stroke:none"
             id="path456" /></g><g
           id="g458"
           transform="translate(425.326,86.4233)"><path
             d="m 0,0 h 2.914 v 65.488 h -54.43 V 1.495 Z"
             style="fill:none;stroke:#233239;stroke-width:1;stroke-linecap:butt;stroke-linejoin:miter;stroke-miterlimit:10;stroke-dasharray:none;stroke-opacity:1"
             id="path460" /></g><path
           d="m 398.234,122.6 h -18.262 v 12.307 h 18.262 z"
           style="fill:#ffffff;fill-opacity:1;fill-rule:nonzero;stroke:#233239;stroke-width:1;stroke-linecap:butt;stroke-linejoin:miter;stroke-miterlimit:10;stroke-dasharray:none;stroke-opacity:1"
           id="path462" /><path
           d="m 395.329,151.912 h 11.392 V 142.1 h -11.392 z"
           style="fill:#ffffff;fill-opacity:1;fill-rule:nonzero;stroke:#233239;stroke-width:1;stroke-linecap:butt;stroke-linejoin:miter;stroke-miterlimit:10;stroke-dasharray:none;stroke-opacity:1"
           id="path464" /><g
           id="g466"
           transform="translate(520.807,98.5588)"><path
             d="m 0,0 c 0,0 0.379,-11.745 0.758,-14.776 0.379,-3.031 3.031,-4.546 6.44,-3.788 3.41,0.757 76.153,-1.137 76.153,-1.137 0,0 3.409,0.758 3.788,4.925 0.379,4.168 1.516,10.23 1.516,10.23 z"
             style="fill:#233239;fill-opacity:1;fill-rule:nonzero;stroke:none"
             id="path468" /></g><g
           id="g470"
           transform="translate(520.807,98.5588)"><path
             d="m 0,0 c 0,0 0.379,-11.745 0.758,-14.776 0.379,-3.031 3.031,-4.546 6.44,-3.788 3.41,0.757 76.153,-1.137 76.153,-1.137 0,0 3.409,0.758 3.788,4.925 0.379,4.168 1.516,10.23 1.516,10.23 z"
             style="fill:none;stroke:#233239;stroke-width:1;stroke-linecap:butt;stroke-linejoin:miter;stroke-miterlimit:10;stroke-dasharray:none;stroke-opacity:1"
             id="path472" /></g><g
           id="g474"
           transform="translate(588.573,210.4017)"><path
             d="m 0,0 c 0,0 5.497,-44.569 8.05,-50.067 2.552,-5.497 4.516,-7.657 7.461,-8.835 2.945,-1.178 19.634,-6.087 21.597,-6.283 1.964,-0.196 2.945,0.785 2.356,3.141 C 38.875,-59.688 16.1,-7.854 14.136,-4.712 12.173,-1.571 5.694,0.982 3.338,1.767 0.982,2.552 0,0 0,0"
             style="fill:#b2b2b2;fill-opacity:1;fill-rule:nonzero;stroke:none"
             id="path476" /></g><g
           id="g478"
           transform="translate(588.573,210.4017)"><path
             d="m 0,0 c 0,0 5.497,-44.569 8.05,-50.067 2.552,-5.497 4.516,-7.657 7.461,-8.835 2.945,-1.178 19.634,-6.087 21.597,-6.283 1.964,-0.196 2.945,0.785 2.356,3.141 C 38.875,-59.688 16.1,-7.854 14.136,-4.712 12.173,-1.571 5.694,0.982 3.338,1.767 0.982,2.552 0,0 0,0 Z"
             style="fill:none;stroke:#233239;stroke-width:1;stroke-linecap:butt;stroke-linejoin:miter;stroke-miterlimit:10;stroke-dasharray:none;stroke-opacity:1"
             id="path480" /></g><g
           id="g482"
           transform="translate(599.9959,207.9452)"><path
             d="M 0,0 10.298,-57.211"
             style="fill:none;stroke:#233239;stroke-width:1;stroke-linecap:butt;stroke-linejoin:miter;stroke-miterlimit:10;stroke-dasharray:none;stroke-opacity:1"
             id="path484" /></g><g
           id="g486"
           transform="translate(624.307,169.7592)"><path
             d="m 0,0 c 0,0 0.589,-21.008 0.982,-22.775 0.392,-1.768 1.963,-2.553 3.927,-2.357 1.963,0.197 8.442,0.982 9.227,2.945 0.786,1.964 -0.392,16.886 -2.748,20.42 C 9.032,1.767 4.319,2.945 2.356,3.141 0.393,3.338 0,0 0,0"
             style="fill:#b2b2b2;fill-opacity:1;fill-rule:nonzero;stroke:none"
             id="path488" /></g><g
           id="g490"
           transform="translate(624.307,169.7592)"><path
             d="m 0,0 c 0,0 0.589,-21.008 0.982,-22.775 0.392,-1.768 1.963,-2.553 3.927,-2.357 1.963,0.197 8.442,0.982 9.227,2.945 0.786,1.964 -0.392,16.886 -2.748,20.42 C 9.032,1.767 4.319,2.945 2.356,3.141 0.393,3.338 0,0 0,0 Z"
             style="fill:none;stroke:#233239;stroke-width:1;stroke-linecap:butt;stroke-linejoin:miter;stroke-miterlimit:10;stroke-dasharray:none;stroke-opacity:1"
             id="path492" /></g><g
           id="g494"
           transform="translate(625.2887,146.9837)"><path
             d="m 0,0 c 0.393,-1.767 1.963,-2.552 3.927,-2.356 1.963,0.196 8.442,0.982 9.228,2.945 0.785,1.963 -0.393,16.885 -2.749,20.419 -0.975,1.463 -2.355,2.517 -3.775,3.27 L 7.068,23.168 8.443,3.927 H -0.3 C -0.196,1.904 -0.092,0.416 0,0"
             style="fill:#233239;fill-opacity:1;fill-rule:nonzero;stroke:none"
             id="path496" /></g><g
           id="g498"
           transform="translate(625.2887,146.9837)"><path
             d="m 0,0 c 0.393,-1.767 1.963,-2.552 3.927,-2.356 1.963,0.196 8.442,0.982 9.228,2.945 0.785,1.963 -0.393,16.885 -2.749,20.419 -0.975,1.463 -2.355,2.517 -3.775,3.27 L 7.068,23.168 8.443,3.927 H -0.3 C -0.196,1.904 -0.092,0.416 0,0 Z"
             style="fill:none;stroke:#233239;stroke-width:1;stroke-linecap:butt;stroke-linejoin:miter;stroke-miterlimit:10;stroke-dasharray:none;stroke-opacity:1"
             id="path500" /></g><g
           id="g502"
           transform="translate(501.8002,143.2011)"><path
             d="M 0,0 131.167,-15.135"
             style="fill:none;stroke:#233239;stroke-width:1;stroke-linecap:butt;stroke-linejoin:miter;stroke-miterlimit:10;stroke-dasharray:none;stroke-opacity:1"
             id="path504" /></g><g
           id="g506"
           transform="translate(503.0615,138.4715)"><path
             d="m 0,0 115.086,-12.297 9.144,0.631"
             style="fill:none;stroke:#233239;stroke-width:1;stroke-linecap:butt;stroke-linejoin:miter;stroke-miterlimit:10;stroke-dasharray:none;stroke-opacity:1"
             id="path508" /></g><g
           id="g510"
           transform="translate(617.2017,117.9767)"><path
             d="M 0,0 C 0,0 -4.414,-17.342 -6.306,-21.441"
             style="fill:none;stroke:#233239;stroke-width:1;stroke-linecap:butt;stroke-linejoin:miter;stroke-miterlimit:10;stroke-dasharray:none;stroke-opacity:1"
             id="path512" /></g><g
           id="g514"
           transform="translate(503.6921,129.9583)"><path
             d="M 0,0 C 0,0 9.459,-5.045 14.504,-23.332"
             style="fill:none;stroke:#233239;stroke-width:1;stroke-linecap:butt;stroke-linejoin:miter;stroke-miterlimit:10;stroke-dasharray:none;stroke-opacity:1"
             id="path516" /></g><g
           id="g518"
           transform="translate(498.9625,234.0088)"><path
             d="M 0,0 83.871,-19.234"
             style="fill:none;stroke:#233239;stroke-width:1;stroke-linecap:butt;stroke-linejoin:miter;stroke-miterlimit:10;stroke-dasharray:none;stroke-opacity:1"
             id="path520" /></g><g
           id="g522"
           transform="translate(500.2237,239.369)"><path
             d="M 0,0 C 0,0 87.339,-19.864 94.591,-23.648"
             style="fill:none;stroke:#233239;stroke-width:1;stroke-linecap:butt;stroke-linejoin:miter;stroke-miterlimit:10;stroke-dasharray:none;stroke-opacity:1"
             id="path524" /></g><g
           id="g526"
           transform="translate(597.0881,135.3473)"><path
             d="m 0,0 v 0 c -1.03,0.301 -1.865,1.379 -1.865,2.409 v 13.054 c 0,1.03 0.835,1.621 1.865,1.32 1.03,-0.3 1.865,-1.379 1.865,-2.409 V 1.32 C 1.865,0.291 1.03,-0.301 0,0"
             style="fill:#233239;fill-opacity:1;fill-rule:nonzero;stroke:none"
             id="path528" /></g><g
           id="g530"
           transform="translate(597.0881,135.3473)"><path
             d="m 0,0 v 0 c -1.03,0.301 -1.865,1.379 -1.865,2.409 v 13.054 c 0,1.03 0.835,1.621 1.865,1.32 1.03,-0.3 1.865,-1.379 1.865,-2.409 V 1.32 C 1.865,0.291 1.03,-0.301 0,0 Z"
             style="fill:none;stroke:#233239;stroke-width:1;stroke-linecap:butt;stroke-linejoin:miter;stroke-miterlimit:10;stroke-dasharray:none;stroke-opacity:1"
             id="path532" /></g><g
           id="g534"
           transform="translate(582.5427,136.8392)"><path
             d="m 0,0 v 0 c -1.03,0.301 -1.865,1.379 -1.865,2.409 v 13.054 c 0,1.03 0.835,1.621 1.865,1.32 1.03,-0.301 1.865,-1.379 1.865,-2.409 V 1.32 C 1.865,0.29 1.03,-0.301 0,0"
             style="fill:#233239;fill-opacity:1;fill-rule:nonzero;stroke:none"
             id="path536" /></g><g
           id="g538"
           transform="translate(582.5427,136.8392)"><path
             d="m 0,0 v 0 c -1.03,0.301 -1.865,1.379 -1.865,2.409 v 13.054 c 0,1.03 0.835,1.621 1.865,1.32 1.03,-0.301 1.865,-1.379 1.865,-2.409 V 1.32 C 1.865,0.29 1.03,-0.301 0,0 Z"
             style="fill:none;stroke:#233239;stroke-width:1;stroke-linecap:butt;stroke-linejoin:miter;stroke-miterlimit:10;stroke-dasharray:none;stroke-opacity:1"
             id="path540" /></g><path
           d="m 328.464,202.478 h 70.305 v -51.01 h -70.305 z"
           style="fill:#75e6a4;fill-opacity:1;fill-rule:nonzero;stroke:#233239;stroke-width:1;stroke-linecap:butt;stroke-linejoin:miter;stroke-miterlimit:10;stroke-dasharray:none;stroke-opacity:1"
           id="path542" /><path
           d="m 328.464,202.478 h 42.396 v -51.01 h -42.396 z"
           style="fill:#75e6a4;fill-opacity:1;fill-rule:nonzero;stroke:#233239;stroke-width:1;stroke-linecap:butt;stroke-linejoin:miter;stroke-miterlimit:10;stroke-dasharray:none;stroke-opacity:1"
           id="path544" /><path
           d="m 345.225,202.478 h 8.874 v -23.723 h -8.874 z"
           style="fill:#ffffff;fill-opacity:1;fill-rule:nonzero;stroke:#233239;stroke-width:1;stroke-linecap:butt;stroke-linejoin:miter;stroke-miterlimit:10;stroke-dasharray:none;stroke-opacity:1"
           id="path546" /><g
           id="g548"
           transform="translate(436.6621,253.2799)"><path
             d="M 0,0 H -48.325 V -51.01 H 1.262 Z"
             style="fill:#75e6a4;fill-opacity:1;fill-rule:nonzero;stroke:none"
             id="path550" /></g><g
           id="g552"
           transform="translate(436.6621,253.2799)"><path
             d="M 0,0 H -48.325 V -51.01 H 1.262 Z"
             style="fill:none;stroke:#233239;stroke-width:1;stroke-linecap:butt;stroke-linejoin:miter;stroke-miterlimit:10;stroke-dasharray:none;stroke-opacity:1"
             id="path554" /></g><path
           d="m 388.337,253.28 h 42.396 v -51.01 h -42.396 z"
           style="fill:#75e6a4;fill-opacity:1;fill-rule:nonzero;stroke:#233239;stroke-width:1;stroke-linecap:butt;stroke-linejoin:miter;stroke-miterlimit:10;stroke-dasharray:none;stroke-opacity:1"
           id="path556" /><path
           d="M 427.612,212.322 H 409.35 v 12.307 h 18.262 z"
           style="fill:#ffffff;fill-opacity:1;fill-rule:nonzero;stroke:#233239;stroke-width:1;stroke-linecap:butt;stroke-linejoin:miter;stroke-miterlimit:10;stroke-dasharray:none;stroke-opacity:1"
           id="path558" /><path
           d="m 405.099,253.28 h 8.874 v -23.723 h -8.874 z"
           style="fill:#ffffff;fill-opacity:1;fill-rule:nonzero;stroke:#233239;stroke-width:1;stroke-linecap:butt;stroke-linejoin:miter;stroke-miterlimit:10;stroke-dasharray:none;stroke-opacity:1"
           id="path560" /><g
           id="g562"
           transform="translate(437.9192,202.478)"><path
             d="M 0,0 H -55.478 V -51.01 H 1.262 Z"
             style="fill:#75e6a4;fill-opacity:1;fill-rule:nonzero;stroke:none"
             id="path564" /></g><g
           id="g566"
           transform="translate(437.9192,202.478)"><path
             d="M 0,0 H -55.478 V -51.01 H 1.262 Z"
             style="fill:none;stroke:#233239;stroke-width:1;stroke-linecap:butt;stroke-linejoin:miter;stroke-miterlimit:10;stroke-dasharray:none;stroke-opacity:1"
             id="path568" /></g><path
           d="m 382.441,202.478 h 42.396 v -51.01 h -42.396 z"
           style="fill:#75e6a4;fill-opacity:1;fill-rule:nonzero;stroke:#233239;stroke-width:1;stroke-linecap:butt;stroke-linejoin:miter;stroke-miterlimit:10;stroke-dasharray:none;stroke-opacity:1"
           id="path570" /><path
           d="m 399.202,202.478 h 8.874 v -23.723 h -8.874 z"
           style="fill:#ffffff;fill-opacity:1;fill-rule:nonzero;stroke:#233239;stroke-width:1;stroke-linecap:butt;stroke-linejoin:miter;stroke-miterlimit:10;stroke-dasharray:none;stroke-opacity:1"
           id="path572" /></g></g><path
       d="m 318.98,256.453 h 65.162 V 209.174 H 318.98 Z"
       style="fill:#75e6a4;fill-opacity:1;fill-rule:nonzero;stroke:#233239;stroke-width:1;stroke-linecap:butt;stroke-linejoin:miter;stroke-miterlimit:10;stroke-dasharray:none;stroke-opacity:1"
       id="path574" /><path
       d="m 318.98,256.453 h 39.295 V 209.174 H 318.98 Z"
       style="fill:#75e6a4;fill-opacity:1;fill-rule:nonzero;stroke:#233239;stroke-width:1;stroke-linecap:butt;stroke-linejoin:miter;stroke-miterlimit:10;stroke-dasharray:none;stroke-opacity:1"
       id="path576" /><path
       d="m 334.515,256.453 h 8.224 v -21.988 h -8.224 z"
       style="fill:#ffffff;fill-opacity:1;fill-rule:nonzero;stroke:#233239;stroke-width:1;stroke-linecap:butt;stroke-linejoin:miter;stroke-miterlimit:10;stroke-dasharray:none;stroke-opacity:1"
       id="path578" /><g
       id="g580"><g
         id="g582"
         clip-path="url(#clipPath586)"><g
           id="g588"
           transform="translate(279.6672,257.0764)"><path
             d="m 0,0 c 0,0 -0.599,-1.918 0.359,-4.554 0.959,-2.637 2.517,-7.192 3.476,-8.63 0.959,-1.438 0.72,-3.476 0.72,-3.476 l 13.423,-6.233 c 0,0 0.24,5.034 0.719,5.274 0.48,0.24 4.195,0.24 5.035,1.558 0.838,1.319 -0.12,7.911 -0.12,7.911 0,0 0.719,0.719 0.839,1.438 0.119,0.719 -1.798,2.397 -1.559,3.716 0.24,1.318 0.84,2.756 -0.119,4.674 -0.959,1.918 -3.785,6.558 -8.22,7.996 C 10.119,11.113 5.346,9.446 3.428,7.408 1.511,5.371 -0.12,2.996 0,0"
             style="fill:#ffffff;fill-opacity:1;fill-rule:nonzero;stroke:none"
             id="path590" /></g><g
           id="g592"
           transform="translate(279.6672,257.0764)"><path
             d="m 0,0 c 0,0 -0.599,-1.918 0.359,-4.554 0.959,-2.637 2.517,-7.192 3.476,-8.63 0.959,-1.438 0.72,-3.476 0.72,-3.476 l 13.423,-6.233 c 0,0 0.24,5.034 0.719,5.274 0.48,0.24 4.195,0.24 5.035,1.558 0.838,1.319 -0.12,7.911 -0.12,7.911 0,0 0.719,0.719 0.839,1.438 0.119,0.719 -1.798,2.397 -1.559,3.716 0.24,1.318 0.84,2.756 -0.119,4.674 -0.959,1.918 -3.785,6.558 -8.22,7.996 C 10.119,11.113 5.346,9.446 3.428,7.408 1.511,5.371 -0.12,2.996 0,0 Z"
             style="fill:none;stroke:#233239;stroke-width:1;stroke-linecap:butt;stroke-linejoin:miter;stroke-miterlimit:10;stroke-dasharray:none;stroke-opacity:1"
             id="path594" /></g><g
           id="g596"
           transform="translate(299.577,255.6945)"><path
             d="m 0,0 c 0.343,0.481 0.961,1.991 0.961,3.021 0,1.031 -1.373,1.168 -3.639,0.275 -1.815,-0.715 -12.738,-4.554 -16.88,-6.444 0.003,-0.009 0.005,-0.016 0.008,-0.025 0.923,-2.538 2.4,-6.847 3.365,-8.448 0.368,-0.446 0.675,-0.767 0.871,-0.877 1.099,-0.618 4.12,0.618 5.219,2.266 0.905,1.357 1.298,5.37 1.408,6.743 0.024,0.294 0.034,0.467 0.034,0.467 0.412,1.099 2.061,1.168 3.228,0.55 1.167,-0.618 2.266,-0.687 3.021,-0.412 0.756,0.274 0.962,1.098 0.962,1.579 0,0.481 1.099,0.824 1.442,1.305"
             style="fill:#233239;fill-opacity:1;fill-rule:nonzero;stroke:none"
             id="path598" /></g><g
           id="g600"
           transform="translate(299.577,255.6945)"><path
             d="m 0,0 c 0.343,0.481 0.961,1.991 0.961,3.021 0,1.031 -1.373,1.168 -3.639,0.275 -1.815,-0.715 -12.738,-4.554 -16.88,-6.444 0.003,-0.009 0.005,-0.016 0.008,-0.025 0.923,-2.538 2.4,-6.847 3.365,-8.448 0.368,-0.446 0.675,-0.767 0.871,-0.877 1.099,-0.618 4.12,0.618 5.219,2.266 0.905,1.357 1.298,5.37 1.408,6.743 0.024,0.294 0.034,0.467 0.034,0.467 0.412,1.099 2.061,1.168 3.228,0.55 1.167,-0.618 2.266,-0.687 3.021,-0.412 0.756,0.274 0.962,1.098 0.962,1.579 0,0.481 1.099,0.824 1.442,1.305 z"
             style="fill:none;stroke:#233239;stroke-width:1;stroke-linecap:butt;stroke-linejoin:miter;stroke-miterlimit:10;stroke-dasharray:none;stroke-opacity:1"
             id="path602" /></g><g
           id="g604"
           transform="translate(295.2506,252.1235)"><path
             d="m 0,0 c 0,0 -1.648,2.403 -3.09,0.412 -1.442,-1.991 0.961,-4.738 1.923,-5.219 0.961,-0.481 1.373,0.069 1.648,0.824"
             style="fill:#ffffff;fill-opacity:1;fill-rule:nonzero;stroke:#233239;stroke-width:1;stroke-linecap:butt;stroke-linejoin:miter;stroke-miterlimit:10;stroke-dasharray:none;stroke-opacity:1"
             id="path606" /></g><g
           id="g608"
           transform="translate(294.2206,266.7506)"><path
             d="m 0,0 c -4.435,1.438 -9.207,-0.229 -11.125,-2.266 -1.918,-2.038 -3.548,-4.412 -3.428,-7.408 0,0 -0.6,-1.918 0.359,-4.555 0.27,-0.743 0.589,-1.64 0.928,-2.575 l 0.081,-0.021 c 0,0 4.052,-0.892 8.515,1.305 4.464,2.198 11.674,6.181 12.361,7.485 0.074,0.14 0.208,0.247 0.376,0.334 C 6.985,-5.641 4.225,-1.37 0,0"
             style="fill:#75e6a4;fill-opacity:1;fill-rule:nonzero;stroke:none"
             id="path610" /></g><g
           id="g612"
           transform="translate(294.2206,266.7506)"><path
             d="m 0,0 c -4.435,1.438 -9.207,-0.229 -11.125,-2.266 -1.918,-2.038 -3.548,-4.412 -3.428,-7.408 0,0 -0.6,-1.918 0.359,-4.555 0.27,-0.743 0.589,-1.64 0.928,-2.575 l 0.081,-0.021 c 0,0 4.052,-0.892 8.515,1.305 4.464,2.198 11.674,6.181 12.361,7.485 0.074,0.14 0.208,0.247 0.376,0.334 C 6.985,-5.641 4.225,-1.37 0,0 Z"
             style="fill:none;stroke:#233239;stroke-width:1;stroke-linecap:butt;stroke-linejoin:miter;stroke-miterlimit:10;stroke-dasharray:none;stroke-opacity:1"
             id="path614" /></g><g
           id="g616"
           transform="translate(299.1649,256.3125)"><path
             d="m 0,0 c 0,0 5.356,-0.137 8.241,1.305 2.884,1.442 2.403,4.12 1.854,4.326 C 9.545,5.837 1.923,4.876 1.923,4.876 1.923,4.876 2.541,1.854 0,0"
             style="fill:#75e6a4;fill-opacity:1;fill-rule:nonzero;stroke:none"
             id="path618" /></g><g
           id="g620"
           transform="translate(299.1649,256.3125)"><path
             d="m 0,0 c 0,0 5.356,-0.137 8.241,1.305 2.884,1.442 2.403,4.12 1.854,4.326 C 9.545,5.837 1.923,4.876 1.923,4.876 1.923,4.876 2.541,1.854 0,0 Z"
             style="fill:none;stroke:#233239;stroke-width:1;stroke-linecap:butt;stroke-linejoin:miter;stroke-miterlimit:10;stroke-dasharray:none;stroke-opacity:1"
             id="path622" /></g><g
           id="g624"
           transform="translate(301.8844,253.1214)"><path
             d="m 0,0 c 0,-0.625 -0.194,-1.131 -0.433,-1.131 -0.239,0 -0.432,0.506 -0.432,1.131 0,0.625 0.193,1.131 0.432,1.131 C -0.194,1.131 0,0.625 0,0"
             style="fill:#233239;fill-opacity:1;fill-rule:nonzero;stroke:none"
             id="path626" /></g><g
           id="g628"
           transform="translate(299.8401,231.5754)"><path
             d="m 0,0 c 0,0 -2.035,3.488 -4.36,5.329 -2.326,1.841 -8.333,4.07 -10.659,4.264 -2.325,0.193 -1.647,-1.066 -1.938,-2.423 -0.29,-1.356 -0.581,-1.841 0.194,-2.035 0.775,-0.193 4.457,-0.872 9.205,-3.1 C -2.81,-0.194 -0.388,-1.55 0.097,-1.26 0.581,-0.969 0,0 0,0"
             style="fill:#233239;fill-opacity:1;fill-rule:nonzero;stroke:none"
             id="path630" /></g><g
           id="g632"
           transform="translate(299.8401,231.5754)"><path
             d="m 0,0 c 0,0 -2.035,3.488 -4.36,5.329 -2.326,1.841 -8.333,4.07 -10.659,4.264 -2.325,0.193 -1.647,-1.066 -1.938,-2.423 -0.29,-1.356 -0.581,-1.841 0.194,-2.035 0.775,-0.193 4.457,-0.872 9.205,-3.1 C -2.81,-0.194 -0.388,-1.55 0.097,-1.26 0.581,-0.969 0,0 0,0 Z"
             style="fill:none;stroke:#233239;stroke-width:1;stroke-linecap:butt;stroke-linejoin:miter;stroke-miterlimit:10;stroke-dasharray:none;stroke-opacity:1"
             id="path634" /></g><g
           id="g636"
           transform="translate(291.2673,56.8999)"><path
             d="m 0,0 c 0,0 3.383,-5.549 5.278,-6.631 1.895,-1.083 5.549,-2.301 5.819,-4.331 0.271,-2.03 -2.165,-1.895 -3.383,-1.895 -1.218,0 -9.203,-0.27 -10.556,0.271 -1.353,0.541 -4.601,2.977 -8.255,5.007 -3.654,2.03 -6.902,2.301 -6.902,5.684 0,3.384 3.112,4.06 3.654,4.602 C -13.804,3.248 0,0 0,0"
             style="fill:#ffffff;fill-opacity:1;fill-rule:nonzero;stroke:none"
             id="path638" /></g><g
           id="g640"
           transform="translate(291.2673,56.8999)"><path
             d="m 0,0 c 0,0 3.383,-5.549 5.278,-6.631 1.895,-1.083 5.549,-2.301 5.819,-4.331 0.271,-2.03 -2.165,-1.895 -3.383,-1.895 -1.218,0 -9.203,-0.27 -10.556,0.271 -1.353,0.541 -4.601,2.977 -8.255,5.007 -3.654,2.03 -6.902,2.301 -6.902,5.684 0,3.384 3.112,4.06 3.654,4.602 C -13.804,3.248 0,0 0,0 Z"
             style="fill:none;stroke:#233239;stroke-width:1;stroke-linecap:butt;stroke-linejoin:miter;stroke-miterlimit:10;stroke-dasharray:none;stroke-opacity:1"
             id="path642" /></g><g
           id="g644"
           transform="translate(278.5461,151.362)"><path
             d="m 0,0 c 0,0 3.383,-31.938 3.519,-33.563 0.135,-1.623 -2.166,-7.443 -3.113,-12.585 -0.947,-5.143 -2.165,-19.353 -2.165,-19.353 l 0.406,-28.014 c 0,0 8.12,-1.895 9.338,-1.759 1.218,0.135 4.33,0.676 4.736,0.812 0.406,0.135 2.707,0.947 2.707,0.947 0,0 -0.541,9.338 -0.541,12.316 0,2.977 1.894,22.059 2.3,23.953 0.406,1.895 5.143,29.774 5.819,44.525 0.677,14.751 -1.759,27.066 -1.759,27.066 L -2.03,13.127 Z"
             style="fill:#75e6a4;fill-opacity:1;fill-rule:nonzero;stroke:none"
             id="path646" /></g><g
           id="g648"
           transform="translate(278.5461,151.362)"><path
             d="m 0,0 c 0,0 3.383,-31.938 3.519,-33.563 0.135,-1.623 -2.166,-7.443 -3.113,-12.585 -0.947,-5.143 -2.165,-19.353 -2.165,-19.353 l 0.406,-28.014 c 0,0 8.12,-1.895 9.338,-1.759 1.218,0.135 4.33,0.676 4.736,0.812 0.406,0.135 2.707,0.947 2.707,0.947 0,0 -0.541,9.338 -0.541,12.316 0,2.977 1.894,22.059 2.3,23.953 0.406,1.895 5.143,29.774 5.819,44.525 0.677,14.751 -1.759,27.066 -1.759,27.066 L -2.03,13.127 Z"
             style="fill:none;stroke:#233239;stroke-width:1;stroke-linecap:butt;stroke-linejoin:miter;stroke-miterlimit:10;stroke-dasharray:none;stroke-opacity:1"
             id="path650" /></g><g
           id="g652"
           transform="translate(284.3654,56.3585)"><path
             d="m 0,0 c 0,0 2.03,-4.872 2.977,-5.684 0.948,-0.812 6.902,-3.113 7.173,-4.195 0.271,-1.083 -0.812,-2.03 -2.301,-2.436 -1.488,-0.406 -12.18,-0.406 -14.345,0.676 -2.165,1.083 -8.932,6.09 -10.827,6.902 -1.894,0.812 -5.007,1.895 -4.195,5.278 0.812,3.384 4.872,5.955 4.872,5.955 z"
             style="fill:#ffffff;fill-opacity:1;fill-rule:nonzero;stroke:none"
             id="path654" /></g><g
           id="g656"
           transform="translate(284.3654,56.3585)"><path
             d="m 0,0 c 0,0 2.03,-4.872 2.977,-5.684 0.948,-0.812 6.902,-3.113 7.173,-4.195 0.271,-1.083 -0.812,-2.03 -2.301,-2.436 -1.488,-0.406 -12.18,-0.406 -14.345,0.676 -2.165,1.083 -8.932,6.09 -10.827,6.902 -1.894,0.812 -5.007,1.895 -4.195,5.278 0.812,3.384 4.872,5.955 4.872,5.955 z"
             style="fill:none;stroke:#233239;stroke-width:1;stroke-linecap:butt;stroke-linejoin:miter;stroke-miterlimit:10;stroke-dasharray:none;stroke-opacity:1"
             id="path658" /></g><g
           id="g660"
           transform="translate(274.6214,166.9252)"><path
             d="m 0,0 c 0,0 -1.353,-6.631 0.677,-11.774 2.03,-5.143 7.714,-12.044 8.661,-13.398 0.947,-1.353 -0.271,-17.052 -0.947,-23.142 -0.677,-6.09 -1.76,-16.375 -1.76,-16.781 0,-0.406 -5.819,-15.292 -8.255,-22.195 -2.436,-6.901 -6.496,-16.781 -6.496,-16.781 0,0 5.413,-4.06 8.12,-4.872 2.707,-0.812 9.744,-1.624 9.744,-1.624 0,0 0.677,3.248 1.353,4.602 0.677,1.353 -0.135,1.894 0.677,5.548 0.812,3.654 9.879,23.142 13.262,28.691 3.384,5.548 5.414,15.698 6.767,20.706 1.353,5.007 1.353,25.442 1.624,32.48 0.271,7.037 -2.03,15.021 -2.03,15.021 l -0.677,2.572 z"
             style="fill:#75e6a4;fill-opacity:1;fill-rule:nonzero;stroke:none"
             id="path662" /></g><g
           id="g664"
           transform="translate(274.6214,166.9252)"><path
             d="m 0,0 c 0,0 -1.353,-6.631 0.677,-11.774 2.03,-5.143 7.714,-12.044 8.661,-13.398 0.947,-1.353 -0.271,-17.052 -0.947,-23.142 -0.677,-6.09 -1.76,-16.375 -1.76,-16.781 0,-0.406 -5.819,-15.292 -8.255,-22.195 -2.436,-6.901 -6.496,-16.781 -6.496,-16.781 0,0 5.413,-4.06 8.12,-4.872 2.707,-0.812 9.744,-1.624 9.744,-1.624 0,0 0.677,3.248 1.353,4.602 0.677,1.353 -0.135,1.894 0.677,5.548 0.812,3.654 9.879,23.142 13.262,28.691 3.384,5.548 5.414,15.698 6.767,20.706 1.353,5.007 1.353,25.442 1.624,32.48 0.271,7.037 -2.03,15.021 -2.03,15.021 l -0.677,2.572 z"
             style="fill:none;stroke:#233239;stroke-width:1;stroke-linecap:butt;stroke-linejoin:miter;stroke-miterlimit:10;stroke-dasharray:none;stroke-opacity:1"
             id="path666" /></g><g
           id="g668"
           transform="translate(296.9397,127.0083)"><path
             d="M 0,0 C -0.215,-1.969 -0.486,-4.032 -0.825,-6.165"
             style="fill:none;stroke:#233239;stroke-width:1;stroke-linecap:butt;stroke-linejoin:miter;stroke-miterlimit:10;stroke-dasharray:none;stroke-opacity:1"
             id="path670" /></g><g
           id="g672"
           transform="translate(295.1917,163.921)"><path
             d="m 0,0 c 0,0 -0.923,-1.538 -0.615,-4 0.307,-2.462 2.461,-3.385 3.692,-4.923 1.231,-1.539 -1.231,-2.154 -1.846,-4 -0.616,-1.846 1.231,-3.385 1.231,-4.616 0,-0.854 0.296,-6.308 -0.243,-14.094"
             style="fill:none;stroke:#233239;stroke-width:1;stroke-linecap:butt;stroke-linejoin:miter;stroke-miterlimit:10;stroke-dasharray:none;stroke-opacity:1"
             id="path674" /></g><g
           id="g676"
           transform="translate(273.6741,171.7972)"><path
             d="m 0,0 c 0,0 -1.083,-5.278 -0.135,-5.819 0.947,-0.542 30.855,-0.136 31.803,0 0.947,0.135 1.488,0.27 1.624,1.488 0.135,1.218 -0.542,4.466 -0.542,4.466 z"
             style="fill:#233239;fill-opacity:1;fill-rule:nonzero;stroke:none"
             id="path678" /></g><g
           id="g680"
           transform="translate(273.6741,171.7972)"><path
             d="m 0,0 c 0,0 -1.083,-5.278 -0.135,-5.819 0.947,-0.542 30.855,-0.136 31.803,0 0.947,0.135 1.488,0.27 1.624,1.488 0.135,1.218 -0.542,4.466 -0.542,4.466 z"
             style="fill:none;stroke:#233239;stroke-width:1;stroke-linecap:butt;stroke-linejoin:miter;stroke-miterlimit:10;stroke-dasharray:none;stroke-opacity:1"
             id="path682" /></g><g
           id="g684"
           transform="translate(283.0772,236.7108)"><path
             d="m 0,0 c 0,0 -9.108,-5.523 -11.337,-12.693 -2.228,-7.17 0.878,-39.082 0.878,-39.082 0,0 -2.547,-11.034 -0.17,-13.241 2.376,-2.207 32.762,-1.698 34.12,-0.679 1.358,1.018 2.377,3.055 2.377,5.262 0,2.207 0.679,21.559 0.679,32.423 0,10.864 -5.154,17.866 -7.469,20.37 -2.315,2.505 -3.905,2.886 -3.905,2.886 C 15.173,-4.754 2.99,0.001 0,0"
             style="fill:#75e6a4;fill-opacity:1;fill-rule:nonzero;stroke:none"
             id="path686" /></g><g
           id="g688"
           transform="translate(283.0772,236.7108)"><path
             d="m 0,0 c 0,0 -9.108,-5.523 -11.337,-12.693 -2.228,-7.17 0.878,-39.082 0.878,-39.082 0,0 -2.547,-11.034 -0.17,-13.241 2.376,-2.207 32.762,-1.698 34.12,-0.679 1.358,1.018 2.377,3.055 2.377,5.262 0,2.207 0.679,21.559 0.679,32.423 0,10.864 -5.154,17.866 -7.469,20.37 -2.315,2.505 -3.905,2.886 -3.905,2.886 C 15.173,-4.754 2.99,0.001 0,0 Z"
             style="fill:none;stroke:#233239;stroke-width:1;stroke-linecap:butt;stroke-linejoin:miter;stroke-miterlimit:10;stroke-dasharray:none;stroke-opacity:1"
             id="path690" /></g><g
           id="g692"
           transform="translate(277.2254,213.2416)"><path
             d="M 0,0 C 0.592,-1.16 1.34,-2.419 2.274,-3.782"
             style="fill:none;stroke:#233239;stroke-width:1;stroke-linecap:butt;stroke-linejoin:miter;stroke-miterlimit:10;stroke-dasharray:none;stroke-opacity:1"
             id="path694" /></g><g
           id="g696"
           transform="translate(276.4223,224.537)"><path
             d="M 0,0 C 0,0 -1.849,-1.849 -1.048,-6.152"
             style="fill:none;stroke:#233239;stroke-width:1;stroke-linecap:butt;stroke-linejoin:miter;stroke-miterlimit:10;stroke-dasharray:none;stroke-opacity:1"
             id="path698" /></g><g
           id="g700"
           transform="translate(297.8944,228.8484)"><path
             d="m 0,0 c 0,0 5.67,1.128 9.458,-0.863 3.788,-1.992 9.924,-8.071 11.572,-8.889 1.649,-0.819 4.499,-3.632 6.858,-4.254 2.36,-0.622 6.268,-1.932 6.268,-1.932 0,0 11.477,0.802 12.825,0.912 1.349,0.11 10.868,-0.063 10.868,-0.063 0,0 0.548,-1.72 0.713,-3.744 0.166,-2.023 0.006,-3.394 0.006,-3.394 0,0 -3.499,-2.051 -4.432,-2.263 -0.933,-0.212 -9.175,-2.378 -16.326,-4.592 -7.152,-2.214 -18.237,-0.454 -25.74,1.461 -7.503,1.914 -24.967,9.163 -25.858,9.583"
             style="fill:#75e6a4;fill-opacity:1;fill-rule:nonzero;stroke:#233239;stroke-width:1;stroke-linecap:butt;stroke-linejoin:miter;stroke-miterlimit:10;stroke-dasharray:none;stroke-opacity:1"
             id="path702" /></g><g
           id="g704"
           transform="translate(320.4881,205.8578)"><path
             d="M 0,0 C -1.536,-0.462 -3.121,-0.826 -4.681,-1.013"
             style="fill:none;stroke:#233239;stroke-width:1;stroke-linecap:butt;stroke-linejoin:miter;stroke-miterlimit:10;stroke-dasharray:none;stroke-opacity:1"
             id="path706" /></g><g
           id="g708"
           transform="translate(331.8075,210.9984)"><path
             d="M 0,0 C 0,0 -3.58,-2.254 -8.215,-4.064"
             style="fill:none;stroke:#233239;stroke-width:1;stroke-linecap:butt;stroke-linejoin:miter;stroke-miterlimit:10;stroke-dasharray:none;stroke-opacity:1"
             id="path710" /></g><g
           id="g712"
           transform="translate(299.252,205.495)"><path
             d="M 0,0 C 0,0 -5.549,-10.556 -12.315,-15.293"
             style="fill:none;stroke:#233239;stroke-width:1;stroke-linecap:butt;stroke-linejoin:miter;stroke-miterlimit:10;stroke-dasharray:none;stroke-opacity:1"
             id="path714" /></g><g
           id="g716"
           transform="translate(291.815,188.1809)"><path
             d="M 0,0 C -1.377,-1.573 -2.815,-3.053 -4.202,-4.204"
             style="fill:none;stroke:#233239;stroke-width:1;stroke-linecap:butt;stroke-linejoin:miter;stroke-miterlimit:10;stroke-dasharray:none;stroke-opacity:1"
             id="path718" /></g><g
           id="g720"
           transform="translate(299.5226,198.4577)"><path
             d="M 0,0 C 0,0 -2.429,-3.773 -5.594,-7.741"
             style="fill:none;stroke:#233239;stroke-width:1;stroke-linecap:butt;stroke-linejoin:miter;stroke-miterlimit:10;stroke-dasharray:none;stroke-opacity:1"
             id="path722" /></g><g
           id="g724"
           transform="translate(355.7437,213.7594)"><path
             d="M 0,0 C 0,0 2.109,2.347 3.511,3.589 4.913,4.831 6.604,5.595 7.435,6.164 8.265,6.733 8.798,9.408 10,8.503 11.201,7.599 10.899,6.698 10.462,5.911 10.025,5.123 9.027,3.538 8.705,2.886 L 8.382,2.233 c 0,0 3.452,-0.846 4.955,-0.848 1.504,-0.002 5.651,-0.165 5.836,-0.901 0.186,-0.737 -0.376,-1.534 -0.749,-1.565 -0.373,-0.03 -5.475,-0.447 -5.475,-0.447 0,0 4.205,-2.413 4.236,-2.786 0.03,-0.373 -0.914,-1.077 -2.014,-1.417 -1.1,-0.34 -2.74,-1.727 -4.482,-1.869 -1.743,-0.143 -6.781,0.197 -7.424,0.395 -0.642,0.198 -2.546,0.067 -2.546,0.067 z"
             style="fill:#ffffff;fill-opacity:1;fill-rule:nonzero;stroke:none"
             id="path726" /></g><g
           id="g728"
           transform="translate(355.7437,213.7594)"><path
             d="M 0,0 C 0,0 2.109,2.347 3.511,3.589 4.913,4.831 6.604,5.595 7.435,6.164 8.265,6.733 8.798,9.408 10,8.503 11.201,7.599 10.899,6.698 10.462,5.911 10.025,5.123 9.027,3.538 8.705,2.886 L 8.382,2.233 c 0,0 3.452,-0.846 4.955,-0.848 1.504,-0.002 5.651,-0.165 5.836,-0.901 0.186,-0.737 -0.376,-1.534 -0.749,-1.565 -0.373,-0.03 -5.475,-0.447 -5.475,-0.447 0,0 4.205,-2.413 4.236,-2.786 0.03,-0.373 -0.914,-1.077 -2.014,-1.417 -1.1,-0.34 -2.74,-1.727 -4.482,-1.869 -1.743,-0.143 -6.781,0.197 -7.424,0.395 -0.642,0.198 -2.546,0.067 -2.546,0.067 z"
             style="fill:none;stroke:#233239;stroke-width:1;stroke-linecap:butt;stroke-linejoin:miter;stroke-miterlimit:10;stroke-dasharray:none;stroke-opacity:1"
             id="path730" /></g><g
           id="g732"
           transform="translate(366.8537,210.2021)"><path
             d="M 0,0 4.061,-2.174"
             style="fill:#ffffff;fill-opacity:1;fill-rule:nonzero;stroke:#233239;stroke-width:1;stroke-linecap:butt;stroke-linejoin:miter;stroke-miterlimit:10;stroke-dasharray:none;stroke-opacity:1"
             id="path734" /></g><g
           id="g736"
           transform="translate(365.2741,208.0687)"><path
             d="M 0,0 2.601,-1.166"
             style="fill:#ffffff;fill-opacity:1;fill-rule:nonzero;stroke:#233239;stroke-width:1;stroke-linecap:butt;stroke-linejoin:miter;stroke-miterlimit:10;stroke-dasharray:none;stroke-opacity:1"
             id="path738" /></g></g></g><path
       d="m 183.853,109.153 h 90.26 V 43.665 h -90.26 z"
       style="fill:#75e6a4;fill-opacity:1;fill-rule:nonzero;stroke:#233239;stroke-width:1;stroke-linecap:butt;stroke-linejoin:miter;stroke-miterlimit:10;stroke-dasharray:none;stroke-opacity:1"
       id="path740" /><path
       d="m 183.853,109.153 h 54.429 V 43.665 h -54.429 z"
       style="fill:#75e6a4;fill-opacity:1;fill-rule:nonzero;stroke:#233239;stroke-width:1;stroke-linecap:butt;stroke-linejoin:miter;stroke-miterlimit:10;stroke-dasharray:none;stroke-opacity:1"
       id="path742" /><path
       d="m 205.372,109.153 h 11.392 V 78.697 h -11.392 z"
       style="fill:#ffffff;fill-opacity:1;fill-rule:nonzero;stroke:#233239;stroke-width:1;stroke-linecap:butt;stroke-linejoin:miter;stroke-miterlimit:10;stroke-dasharray:none;stroke-opacity:1"
       id="path744" /><path
       d="M 170.994,120.451 H 97.771 V 54.963 h 73.223 z"
       style="fill:#75e6a4;fill-opacity:1;fill-rule:nonzero;stroke:#233239;stroke-width:1;stroke-linecap:butt;stroke-linejoin:miter;stroke-miterlimit:10;stroke-dasharray:none;stroke-opacity:1"
       id="path746" /><path
       d="M 170.994,120.451 H 126.838 V 54.963 h 44.156 z"
       style="fill:#75e6a4;fill-opacity:1;fill-rule:nonzero;stroke:#233239;stroke-width:1;stroke-linecap:butt;stroke-linejoin:miter;stroke-miterlimit:10;stroke-dasharray:none;stroke-opacity:1"
       id="path748" /><path
       d="m 153.537,120.451 h -9.242 V 89.995 h 9.242 z"
       style="fill:#ffffff;fill-opacity:1;fill-rule:nonzero;stroke:#233239;stroke-width:1;stroke-linecap:butt;stroke-linejoin:miter;stroke-miterlimit:10;stroke-dasharray:none;stroke-opacity:1"
       id="path750" /><path
       d="m 301.938,375.149 h -33.841 v 34.61 h 33.841 z"
       style="fill:#ffffff;fill-opacity:1;fill-rule:nonzero;stroke:#233239;stroke-width:1;stroke-linecap:butt;stroke-linejoin:miter;stroke-miterlimit:10;stroke-dasharray:none;stroke-opacity:1"
       id="path752" /><g
       id="g754"><g
         id="g756"
         clip-path="url(#clipPath760)"><g
           id="g762"
           transform="translate(279.4871,387.5404)"><path
             d="m 0,0 h 4.92 c 0,-2.752 0.306,-3.475 1.474,-3.392 1.139,0.084 1.167,1.613 1.167,4.504 0,1.973 -0.25,3.614 -1.529,3.614 C 5.171,4.726 4.67,4.142 4.475,2.613 H 0.028 L 0.556,15.844 H 11.314 V 11.703 H 4.587 L 4.309,7.505 c 0.278,0.417 1.445,0.862 2.585,1.001 3.391,0.472 5.421,-2.224 5.421,-7.339 0,-4.865 -0.779,-8.311 -6.311,-8.311 C 0.807,-7.144 0,-4.226 0,0"
             style="fill:#233239;fill-opacity:1;fill-rule:nonzero;stroke:none"
             id="path764" /></g></g></g><g
       id="g766"
       transform="translate(744.7083,43.8256)"><path
         d="M 0,0 H -738.468"
         style="fill:none;stroke:#233239;stroke-width:1;stroke-linecap:butt;stroke-linejoin:miter;stroke-miterlimit:10;stroke-dasharray:none;stroke-opacity:1"
         id="path768" /></g></g></svg>
